<svg xmlns="http://www.w3.org/2000/svg" width="59" height="59" viewBox="0 0 59 59" fill="none">
  <g filter="url(#filter0_d_1249_698)">
    <path d="M25.175 20.8C25.675 20.8 27.675 25.3 27.675 25.8C27.675 26.8 26.175 27.8 25.675 28.8C25.175 29.8 26.175 30.8 27.175 31.8C27.565 32.19 29.175 33.8 30.175 33.3C31.175 32.8 32.175 31.3 33.175 31.3C33.675 31.3 38.175 33.3 38.175 33.8C38.175 35.8 36.675 37.3 35.175 37.8C33.675 38.3 32.675 38.3 30.675 37.8C28.675 37.3 27.175 36.8 24.675 34.3C22.175 31.8 21.675 30.3 21.175 28.3C20.675 26.3 20.675 25.3 21.175 23.8C21.675 22.3 23.175 20.8 25.175 20.8Z" fill="white" fill-opacity="0.2" shape-rendering="crispEdges"/>
    <path d="M25.175 20.8C25.675 20.8 27.675 25.3 27.675 25.8C27.675 26.8 26.175 27.8 25.675 28.8C25.175 29.8 26.175 30.8 27.175 31.8C27.565 32.19 29.175 33.8 30.175 33.3C31.175 32.8 32.175 31.3 33.175 31.3C33.675 31.3 38.175 33.3 38.175 33.8C38.175 35.8 36.675 37.3 35.175 37.8C33.675 38.3 32.675 38.3 30.675 37.8C28.675 37.3 27.175 36.8 24.675 34.3C22.175 31.8 21.675 30.3 21.175 28.3C20.675 26.3 20.675 25.3 21.175 23.8C21.675 22.3 23.175 20.8 25.175 20.8Z" stroke="white" stroke-width="1.6" stroke-linecap="round" stroke-linejoin="round" shape-rendering="crispEdges"/>
  </g>
  <path d="M32.935 26.0801C32.435 25.5701 31.835 25.1501 31.175 24.8401L32.935 26.0801ZM32.935 26.0801C33.425 26.5701 33.835 27.1601 34.135 27.8001L32.935 26.0801Z" fill="white" fill-opacity="0.1"/>
  <path d="M31.175 24.8401C31.835 25.1501 32.435 25.5701 32.935 26.0801C33.425 26.5701 33.835 27.1601 34.135 27.8001" stroke="white" stroke-width="1.6" stroke-linecap="round" stroke-linejoin="round"/>
  <path d="M35.845 23.15C34.845 22.15 33.585 21.42 32.175 21.05L35.845 23.15ZM35.845 23.15C36.835 24.15 37.565 25.4 37.925 26.8L35.845 23.15Z" fill="white" fill-opacity="0.1"/>
  <path d="M32.175 21.05C33.585 21.42 34.845 22.15 35.845 23.15C36.835 24.15 37.565 25.4 37.925 26.8" stroke="white" stroke-width="1.6" stroke-linecap="round" stroke-linejoin="round"/>
  <defs>
    <filter id="filter0_d_1249_698" x="0" y="0" width="58.9751" height="58.9751" filterUnits="userSpaceOnUse" color-interpolation-filters="sRGB">
      <feFlood flood-opacity="0" result="BackgroundImageFix"/>
      <feColorMatrix in="SourceAlpha" type="matrix" values="0 0 0 0 0 0 0 0 0 0 0 0 0 0 0 0 0 0 127 0" result="hardAlpha"/>
      <feOffset/>
      <feGaussianBlur stdDeviation="10"/>
      <feComposite in2="hardAlpha" operator="out"/>
      <feColorMatrix type="matrix" values="0 0 0 0 0 0 0 0 0 0 0 0 0 0 0 0 0 0 0.4 0"/>
      <feBlend mode="normal" in2="BackgroundImageFix" result="effect1_dropShadow_1249_698"/>
      <feBlend mode="normal" in="SourceGraphic" in2="effect1_dropShadow_1249_698" result="shape"/>
    </filter>
  </defs>
</svg>