<svg width="24" height="24" viewBox="0 0 24 24" fill="none" xmlns="http://www.w3.org/2000/svg">
<path d="M12.704 19.546C12.5991 19.4414 12.5159 19.3173 12.4591 19.1805C12.4024 19.0438 12.3731 18.8971 12.3731 18.7491C12.3731 18.601 12.4024 18.4544 12.4591 18.3177C12.5159 18.1809 12.5991 18.0567 12.704 17.9522L17.5312 13.125L3.74996 13.125C3.45159 13.125 3.16545 13.0065 2.95447 12.7955C2.74349 12.5845 2.62496 12.2984 2.62496 12C2.62496 11.7017 2.74349 11.4155 2.95447 11.2045C3.16545 10.9935 3.45159 10.875 3.74996 10.875H17.5312L12.704 6.04596C12.4927 5.83461 12.3739 5.54797 12.3739 5.24908C12.3739 4.9502 12.4927 4.66355 12.704 4.45221C12.9154 4.24086 13.202 4.12213 13.5009 4.12213C13.7998 4.12213 14.0864 4.24086 14.2978 4.45221L21.0478 11.2022C21.1527 11.3067 21.2359 11.4309 21.2927 11.5677C21.3494 11.7044 21.3787 11.851 21.3787 11.9991C21.3787 12.1471 21.3494 12.2938 21.2927 12.4305C21.2359 12.5673 21.1527 12.6914 21.0478 12.796L14.2978 19.546C14.1933 19.6508 14.0691 19.7341 13.9323 19.7908C13.7956 19.8476 13.649 19.8768 13.5009 19.8768C13.3528 19.8768 13.2062 19.8476 13.0695 19.7908C12.9327 19.7341 12.8085 19.6508 12.704 19.546Z" fill="white"/>
</svg>
