<svg xmlns="http://www.w3.org/2000/svg" width="436" height="370" viewBox="0 0 436 370" fill="none">
  <path d="M307.758 -118.268C488.768 -115.88 622.231 21.0364 627 186.922C632.038 362.629 492.816 510.087 309.242 510.267C225.08 506.888 151.758 477.559 91.9315 417.548C29.7206 355.195 -1.13751 278.83 0.0320353 191.292C1.1566 107.358 32.1496 34.1469 91.8416 -25.5934C152.838 -86.5953 227.419 -115.88 307.758 -118.268ZM369.744 138.49C370.959 138.985 371.813 139.391 372.713 139.706C396.599 148.717 412.747 165.567 420.484 189.625C430.83 221.748 425.523 252.474 408.744 281.263C396.824 301.762 378.291 314.647 356.969 324.063C326.696 337.444 294.713 342.265 262.056 342.535C206.772 343.031 151.488 342.67 96.2498 342.715C95.1253 342.715 93.6409 342.039 92.9661 343.256C92.4263 344.292 93.6858 345.193 94.2706 346.004C105.696 362.674 118.696 378.037 133.63 391.688C171.101 425.793 214.644 447.869 264.485 457.33C304.834 465.034 344.779 463.187 384.408 452.464C387.107 451.743 387.512 450.933 386.388 448.365C374.242 420.477 362.142 392.544 350.177 364.566C347.613 358.529 344.374 352.807 342.844 346.274C342.215 343.526 343.474 343.211 345.184 342.67C356.744 338.931 367.72 333.93 378.336 328.118C382.924 325.64 382.924 325.64 385.128 330.281C385.263 330.596 385.398 330.956 385.533 331.272C394.08 351.591 402.581 371.91 411.128 392.228C413.287 397.319 415.491 402.365 418.01 408.177C419.765 403.672 421.204 400.023 422.644 396.373C438.702 354.97 454.941 313.611 470.82 272.117C480.041 247.969 496.19 231.299 521.065 223.55C529.342 220.982 537.799 219.946 546.481 220.892C547.92 221.072 548.01 221.748 547.65 222.829C547.335 223.73 546.976 224.631 546.616 225.487C521.65 285.813 496.685 346.139 471.765 406.465C471.315 407.592 470.37 408.673 470.955 410.07C573.02 337.039 616.249 187.913 543.557 62.5754C471.18 -62.1765 329.934 -89.4786 238.08 -58.392C268.758 -58.392 299.076 -58.5272 329.395 -58.3469C347.613 -58.2568 365.471 -55.7339 382.519 -49.066C401.322 -41.7224 417.651 -30.9999 429.211 -13.9698C438.927 0.357056 443.021 16.396 443.65 33.5161C445.18 74.9199 427.907 106.142 392.82 127.767C385.623 132.137 377.841 135.246 369.744 138.49ZM356.969 263.332C363.851 255.493 368.125 246.887 370.464 237.336C374.467 221.027 373.433 205.439 363.491 191.247C356.969 181.966 347.703 176.019 337.671 171.108C336.052 170.297 334.658 169.531 333.893 167.594C326.921 150.879 319.858 134.255 312.841 117.585C311.447 114.251 311.986 113.485 315.765 113.125C323.772 112.314 331.644 110.962 339.426 108.8C350.986 105.601 361.602 100.51 371.004 92.9862C384.094 82.4438 389.491 68.1169 391.336 51.9428C394.305 26.0373 382.924 6.61952 358.903 -2.61636C347.388 -7.07661 335.242 -8.78864 322.962 -8.83369C281.713 -8.96886 240.464 -8.8787 199.215 -8.92375C197.056 -8.92375 196.381 -8.20293 196.066 -6.13049C195.257 -0.543907 194.267 4.99754 193.277 10.5391C187.43 43.8333 181.582 77.1275 175.689 110.377C175.194 113.08 175.734 113.891 178.658 113.891C192.108 113.756 205.513 113.981 218.962 113.756C223.056 113.665 225.35 115.378 226.879 118.892C232.322 131.552 237.81 144.166 243.253 156.826C244.827 160.476 244.782 160.476 240.779 160.476C217.523 160.476 194.267 160.566 171.011 160.386C167.772 160.386 166.738 161.377 166.198 164.44C164.039 177.551 161.61 190.661 159.27 203.727C154.097 232.515 149.014 261.304 143.706 290.048C143.077 293.427 143.751 294.283 147.26 294.238C187.07 294.103 226.879 294.238 266.689 294.148C282.568 294.103 298.222 292.211 313.561 288.021C316.125 287.345 316.575 286.624 315.495 284.191C300.741 250.266 286.031 216.251 271.322 182.281C250.135 133.218 228.949 84.1558 207.762 35.093C205.872 30.7229 205.917 30.5427 210.731 30.9031C236.551 33.0206 257.063 44.4189 271.952 65.729C279.059 75.866 282.838 87.5798 287.606 98.753C308.703 148.492 329.575 198.32 350.536 248.104C352.606 253.105 354.72 258.016 356.969 263.332ZM83.2948 328.118C84.4644 324.694 142.087 -3.56254 142.087 -6.49099C49.8728 67.4861 15.731 212.737 83.2948 328.118Z" fill="url(#paint0_linear_1098_1826)" fill-opacity="0.12"/>
  <defs>
    <linearGradient id="paint0_linear_1098_1826" x1="313.566" y1="-118.268" x2="313.566" y2="510.267" gradientUnits="userSpaceOnUse">
      <stop/>
      <stop offset="0.661096" stop-opacity="0"/>
    </linearGradient>
  </defs>
</svg>