<svg xmlns="http://www.w3.org/2000/svg" width="32" height="32" viewBox="0 0 32 32" fill="none">
  <path d="M17.765 0.877258L17.5454 0.652854C16.5906 -0.322606 15.0805 -0.169087 14.2366 0.874256L16.0015 2.679L17.765 0.877258Z" fill="white"/>
  <path d="M31.7248 21.4563L29.6855 19.373C28.2923 20.7971 25.2837 23.8717 22.919 26.2867C21.7935 27.437 20.4907 28.3549 19.043 29.0198L21.6844 31.7182C22.0506 32.0922 22.6441 32.0922 23.0102 31.718L31.725 22.811C32.0911 22.4369 32.091 21.8304 31.7248 21.4563Z" fill="white"/>
  <path d="M29.1317 17.2299C31.1003 15.0617 28.1666 12.0594 26.0453 14.0729L26.8156 13.2831C28.7841 11.1128 25.8508 8.11271 23.7237 10.1261L24.4994 9.33626C26.4696 7.16419 23.5307 4.16578 21.4076 6.17871L22.1833 5.38946C24.1546 3.21625 21.2114 0.219686 19.0914 2.23198L17.3269 4.0348L18.8716 5.61438C21.1355 7.86691 19.9587 11.9572 16.8711 12.6003C16.5784 14.1096 15.2808 15.4528 13.785 15.7564C13.4923 17.2685 12.1925 18.6127 10.6929 18.9149C10.0504 22.0686 6.08327 23.2744 3.8572 20.9522C3.8572 20.9523 2.31349 19.3739 2.31349 19.3739L0.274602 21.457C-0.0915758 21.8311 -0.0915133 22.4377 0.274665 22.8118L8.99432 31.719C9.3605 32.093 9.95411 32.0929 10.3202 31.7187L13.6833 28.2809C16.6496 28.2809 19.4956 27.0763 21.5932 24.9324C24.778 21.6801 29.1317 17.2299 29.1317 17.2299Z" fill="white"/>
  <path d="M5.18355 19.5977C7.30862 21.6113 10.2449 18.6105 8.27541 16.4402C10.4006 18.4537 13.3368 15.453 11.3673 13.2827C13.4907 15.297 16.4215 12.2915 14.4537 10.1257C16.576 12.1384 19.5162 9.14054 17.5455 6.96816L12.9132 2.2316C12.0556 1.3603 10.6735 1.3603 9.82137 2.2316C8.96914 3.10291 8.96914 4.51785 9.82137 5.38916L10.5915 6.1784C8.47116 4.16349 5.52698 7.17404 7.50518 9.33596L8.27535 10.1257C6.15122 8.11138 3.21379 11.1127 5.18355 13.2827L5.91185 14.0265C3.76665 12.1033 0.920975 15.0909 2.8673 17.2295C2.86736 17.2294 5.18355 19.5977 5.18355 19.5977Z" fill="white"/>
</svg>