<svg width="38" height="38" viewBox="0 0 38 38" fill="none" xmlns="http://www.w3.org/2000/svg">
<path fill-rule="evenodd" clip-rule="evenodd" d="M12.7392 3.42952C13.1349 3.5656 13.5716 3.40663 13.7872 3.04807C14.8076 1.30754 16.7667 0.100098 19.0002 0.100098C21.2336 0.100098 23.1923 1.30754 24.2127 3.04807C24.4282 3.40663 24.865 3.56517 25.2607 3.42909C27.1611 2.75215 29.4381 3.08651 31.1489 4.52205C32.8596 5.95715 33.584 8.14178 33.2471 10.1307C33.1819 10.5437 33.4143 10.9463 33.8048 11.0962C35.6957 11.7991 37.2254 13.5189 37.6129 15.7182C38.0008 17.9175 37.1519 20.0563 35.6149 21.3631C35.2995 21.6379 35.2187 22.0958 35.4218 22.4617C36.4184 24.2156 36.4845 26.516 35.3682 28.4501C34.2515 30.3842 32.2263 31.4771 30.2088 31.4901C29.7907 31.4979 29.4347 31.7968 29.3548 32.2072C28.991 34.1918 27.5628 35.9963 25.4642 36.7605C23.366 37.5243 21.1118 37.0594 19.5579 35.7729C19.2326 35.5098 18.7677 35.5098 18.4429 35.7734C16.8885 37.0594 14.6344 37.5243 12.5361 36.7605C10.4375 35.9963 9.0093 34.1918 8.64599 32.2072C8.56607 31.7968 8.2101 31.4979 7.79149 31.4909C5.77448 31.4771 3.74883 30.3842 2.63211 28.4501C1.51583 26.516 1.58192 24.2156 2.57898 22.4621C2.78159 22.0962 2.7008 21.6383 2.38501 21.364C0.848385 20.0563 -0.000494689 17.9175 0.387441 15.7182C0.774945 13.5189 2.30466 11.7991 4.19552 11.0967C4.58605 10.9468 4.81847 10.5441 4.7528 10.1307C4.41627 8.14178 5.14074 5.95759 6.85146 4.52205C8.56218 3.08651 10.8392 2.75215 12.7392 3.42952ZM17.7525 26.0823L27.8069 16.0275C28.8446 14.9898 28.8446 13.3076 27.8069 12.2704L27.8048 12.2682C26.7671 11.2306 25.0853 11.2306 24.0476 12.2682L16.4794 19.836C16.3952 19.9203 16.2807 19.9678 16.1615 19.9678C16.0423 19.9678 15.9278 19.9203 15.8431 19.836L14.0382 18.0311C13.001 16.9935 11.3188 16.9935 10.2811 18.0311L10.2789 18.0333C9.24128 19.0709 9.24128 20.7532 10.2789 21.7908L14.5704 26.0823C14.9925 26.5044 15.5645 26.7411 16.1615 26.7411C16.7581 26.7411 17.3305 26.5039 17.7525 26.0823Z" fill="white"/>
</svg>
