<svg xmlns="http://www.w3.org/2000/svg" width="40" height="40" viewBox="0 0 40 40" fill="none">
  <path d="M22.4347 10.7498C18.0736 6.38874 11.003 6.38874 6.64189 10.7498C2.83764 14.554 2.35291 20.4197 5.18576 24.7505L4.12924 28.9867L8.20864 27.8445C12.5594 30.8454 18.5637 30.4135 22.4346 26.5425C26.7957 22.1815 26.7957 15.1108 22.4347 10.7498Z" fill="url(#paint0_linear_1234_8363)"/>
  <path opacity="0.8" d="M23.4084 16.6721C26.4145 13.6659 31.2884 13.6659 34.2946 16.6721C36.9169 19.2944 37.251 23.3377 35.2983 26.323L36.0266 29.2431L33.2146 28.4557C30.2155 30.5243 26.0767 30.2266 23.4084 27.5583C20.4023 24.5521 20.4023 19.6782 23.4084 16.6721Z" fill="url(#paint1_linear_1234_8363)"/>
  <path d="M9.745 14.2066C11.7322 16.5263 10.9106 15.8031 12.907 14.8818C14.7891 14.0146 16.0172 15.3368 15.44 16.7387C14.9277 17.983 13.7518 18.3736 13.218 19.5215C12.9242 20.1533 13.1641 20.6197 13.6107 22.2505C17.9983 21.6704 14.3709 21.5371 16.7282 19.2166C22.1266 13.9066 14.4865 9.03368 9.745 14.2066Z" fill="white"/>
  <path d="M13.6702 24.8746C13.9445 26.9488 17.1411 26.5087 16.8691 24.4517C16.5979 22.4007 13.3968 22.8067 13.6702 24.8746Z" fill="white"/>
  <path d="M26.5347 18.1629C27.3557 20.1502 26.9646 19.4863 28.502 19.3076C29.9511 19.1399 30.4829 20.2936 29.7895 21.1049C29.1742 21.825 28.3019 21.8287 27.6932 22.4796C27.3582 22.8379 27.4165 23.2025 27.3579 24.3913C30.4202 24.9647 28.0227 24.0806 30.1083 23.0449C34.8834 20.6757 30.8403 15.7415 26.5347 18.1629Z" fill="white"/>
  <path d="M26.8226 26.1597C26.5515 27.6074 28.7864 28.0135 29.0552 26.5778C29.3233 25.1463 27.0928 24.7164 26.8226 26.1597Z" fill="white"/>
  <path opacity="0.8" d="M37.9424 31.2148L34.7474 30.3202L34.7811 30.1997L37.7689 31.0363L37.6634 30.6134L37.7849 30.5831L37.9424 31.2148Z" fill="url(#paint2_linear_1234_8363)"/>
  <path d="M14.5425 31.1938C13.0598 31.1938 11.6046 30.936 10.2173 30.4279L10.2603 30.3104C11.6338 30.8135 13.0745 31.0687 14.5425 31.0687C14.919 31.0687 15.2999 31.0514 15.6746 31.0172C17.1656 30.8816 18.6023 30.4839 19.9449 29.8354L19.9993 29.9481C18.6432 30.6031 17.192 31.0048 15.686 31.1419C15.3074 31.1763 14.9227 31.1938 14.5425 31.1938Z" fill="url(#paint3_linear_1234_8363)"/>
  <path opacity="0.8" d="M25.116 30.3932C24.3502 30.0478 23.6357 29.5967 22.9922 29.0521L23.0731 28.9565C23.7076 29.4937 24.4123 29.9386 25.1674 30.279L25.116 30.3932Z" fill="url(#paint4_linear_1234_8363)"/>
  <path d="M4.39382 30.3479L4.36011 30.2274L7.99715 29.209L8.01986 29.222L7.98987 29.28L8.0057 29.3366L4.39382 30.3479Z" fill="url(#paint5_linear_1234_8363)"/>
  <path opacity="0.8" d="M37.0579 28.1858L36.6446 26.5287L36.6569 26.507C37.4083 25.1728 37.8055 23.654 37.8055 22.1149C37.8055 21.8069 37.7894 21.4955 37.7578 21.1893C37.6284 19.9384 37.2471 18.7533 36.6245 17.6667L36.733 17.6045C37.3645 18.7063 37.7511 19.9081 37.8823 21.1765C37.9144 21.4868 37.9306 21.8026 37.9306 22.1149C37.9306 23.6671 37.5322 25.199 36.7781 26.5467L37.1794 28.1555L37.0579 28.1858Z" fill="url(#paint6_linear_1234_8363)"/>
  <path d="M2.92479 23.4062C2.608 22.6327 2.36791 21.8227 2.2113 20.9989L2.33424 20.9756C2.48929 21.7911 2.72696 22.593 3.04064 23.3588L2.92479 23.4062Z" fill="url(#paint7_linear_1234_8363)"/>
  <path d="M2.19227 17.2576L2.06787 17.2437C2.38246 14.4313 3.65986 11.7782 5.66471 9.77333C6.04386 9.39422 6.44973 9.03675 6.87093 8.71094L6.94755 8.8099C6.53043 9.13249 6.12862 9.48641 5.75319 9.86179C3.7683 11.8467 2.50366 14.4732 2.19227 17.2576Z" fill="url(#paint8_linear_1234_8363)"/>
  <path opacity="0.8" d="M35.1067 15.7082C33.7468 14.3801 32.0361 13.5327 30.159 13.2574C29.7288 13.1943 29.2896 13.1622 28.8536 13.1622C27.8696 13.1622 26.8997 13.322 25.9706 13.6371L25.9164 13.6554L25.8599 13.5284L25.9739 13.4769L25.9844 13.5004C26.91 13.193 27.875 13.0371 28.8536 13.0371C29.2956 13.0371 29.7409 13.0695 30.1772 13.1336C32.0804 13.4127 33.8153 14.2721 35.194 15.6186L35.1067 15.7082Z" fill="url(#paint9_linear_1234_8363)"/>
  <path d="M23.8363 10.4068C23.6717 10.2213 23.4991 10.0381 23.3231 9.86214C22.9124 9.45147 22.4706 9.06704 22.01 8.71945L22.0854 8.61963C22.5506 8.97063 22.9968 9.3589 23.4116 9.77366C23.5893 9.95132 23.7637 10.1365 23.9299 10.3237L23.8363 10.4068Z" fill="url(#paint10_linear_1234_8363)"/>
  <path d="M9.0561 7.49428L9.00085 7.38199C10.1305 6.82668 11.3361 6.44581 12.5842 6.25L12.6036 6.37365C11.3679 6.56753 10.1743 6.94456 9.0561 7.49428Z" fill="url(#paint11_linear_1234_8363)"/>
  <defs>
    <linearGradient id="paint0_linear_1234_8363" x1="3.37172" y1="18.6452" x2="25.7054" y2="18.6452" gradientUnits="userSpaceOnUse">
      <stop offset="0.1377" stop-color="#FF4264"/>
      <stop offset="1" stop-color="#F0002A"/>
    </linearGradient>
    <linearGradient id="paint1_linear_1234_8363" x1="36.5488" y1="22.1146" x2="21.1538" y2="22.1146" gradientUnits="userSpaceOnUse">
      <stop stop-color="#FEAA00"/>
      <stop offset="1" stop-color="#FF5F0C"/>
    </linearGradient>
    <linearGradient id="paint2_linear_1234_8363" x1="21.996" y1="18.842" x2="35.1202" y2="29.5194" gradientUnits="userSpaceOnUse">
      <stop stop-color="#FEAA00"/>
      <stop offset="1" stop-color="#FF5F0C"/>
    </linearGradient>
    <linearGradient id="paint3_linear_1234_8363" x1="3.36614" y1="15.9893" x2="15.7118" y2="30.893" gradientUnits="userSpaceOnUse">
      <stop offset="0.1377" stop-color="#FF4264"/>
      <stop offset="1" stop-color="#F0002A"/>
    </linearGradient>
    <linearGradient id="paint4_linear_1234_8363" x1="17.5268" y1="24.3354" x2="30.651" y2="35.0127" gradientUnits="userSpaceOnUse">
      <stop stop-color="#FEAA00"/>
      <stop offset="1" stop-color="#FF5F0C"/>
    </linearGradient>
    <linearGradient id="paint5_linear_1234_8363" x1="-1.72652" y1="20.2077" x2="10.6191" y2="35.1114" gradientUnits="userSpaceOnUse">
      <stop offset="0.1377" stop-color="#FF4264"/>
      <stop offset="1" stop-color="#F0002A"/>
    </linearGradient>
    <linearGradient id="paint6_linear_1234_8363" x1="25.9462" y1="13.9873" x2="39.0704" y2="24.6645" gradientUnits="userSpaceOnUse">
      <stop stop-color="#FEAA00"/>
      <stop offset="1" stop-color="#FF5F0C"/>
    </linearGradient>
    <linearGradient id="paint7_linear_1234_8363" x1="-0.117526" y1="18.8746" x2="12.2281" y2="33.7784" gradientUnits="userSpaceOnUse">
      <stop offset="0.1377" stop-color="#FF4264"/>
      <stop offset="1" stop-color="#F0002A"/>
    </linearGradient>
    <linearGradient id="paint8_linear_1234_8363" x1="5.50015" y1="14.2216" x2="17.8458" y2="29.1254" gradientUnits="userSpaceOnUse">
      <stop offset="0.1377" stop-color="#FF4264"/>
      <stop offset="1" stop-color="#F0002A"/>
    </linearGradient>
    <linearGradient id="paint9_linear_1234_8363" x1="27.4755" y1="12.1069" x2="40.5997" y2="22.7843" gradientUnits="userSpaceOnUse">
      <stop stop-color="#FEAA00"/>
      <stop offset="1" stop-color="#FF5F0C"/>
    </linearGradient>
    <linearGradient id="paint10_linear_1234_8363" x1="18.1699" y1="3.72691" x2="30.5155" y2="18.6307" gradientUnits="userSpaceOnUse">
      <stop offset="0.1377" stop-color="#FF4264"/>
      <stop offset="1" stop-color="#F0002A"/>
    </linearGradient>
    <linearGradient id="paint11_linear_1234_8363" x1="12.2657" y1="8.61722" x2="24.6113" y2="23.521" gradientUnits="userSpaceOnUse">
      <stop offset="0.1377" stop-color="#FF4264"/>
      <stop offset="1" stop-color="#F0002A"/>
    </linearGradient>
  </defs>
</svg>