<svg xmlns="http://www.w3.org/2000/svg" width="39" height="39" viewBox="0 0 39 39" fill="none">
  <path d="M29.9124 23.8477C29.9124 32.1078 23.2163 38.8039 14.9562 38.8039C6.69617 38.8039 0 32.1078 0 23.8477C0 15.5873 6.69617 8.89111 14.9562 8.89111C23.2163 8.89111 29.9124 15.5873 29.9124 23.8477Z" fill="url(#paint0_linear_1249_5023)"/>
  <path d="M26.7675 23.8476C26.7675 30.3705 21.4793 35.6583 14.9563 35.6583C8.43335 35.6583 3.14514 30.3705 3.14514 23.8476C3.14514 17.3246 8.43335 12.0364 14.9563 12.0364C21.4793 12.0364 26.7675 17.3246 26.7675 23.8476Z" fill="white"/>
  <path d="M23.6216 23.8474C23.6216 28.6333 19.7417 32.5127 14.9562 32.5127C10.17 32.5127 6.29089 28.6329 6.29089 23.8474C6.29089 19.0611 10.1703 15.1816 14.9562 15.1816C19.7417 15.1816 23.6216 19.0615 23.6216 23.8474Z" fill="url(#paint1_linear_1249_5023)"/>
  <path d="M20.4771 23.8476C20.4771 26.8964 18.0056 29.3679 14.9564 29.3679C11.9072 29.3679 9.43567 26.8964 9.43567 23.8476C9.43567 20.7984 11.9072 18.3269 14.9564 18.3269C18.0056 18.3269 20.4771 20.7988 20.4771 23.8476Z" fill="white"/>
  <path d="M17.3308 23.8474C17.3308 25.1592 16.2677 26.2223 14.9559 26.2223C13.6442 26.2223 12.5811 25.1592 12.5811 23.8474C12.5811 22.5353 13.6442 21.4722 14.9559 21.4722C16.2677 21.4726 17.3308 22.5357 17.3308 23.8474Z" fill="url(#paint2_linear_1249_5023)"/>
  <path d="M38.8019 4.97478L35.0917 4.47168L30.6648 8.89861L34.375 9.40132L38.8019 4.97478Z" fill="url(#paint3_linear_1249_5023)"/>
  <path d="M33.8272 0L34.3299 3.71019L29.903 8.13712L29.3999 4.42654L33.8272 0Z" fill="url(#paint4_linear_1249_5023)"/>
  <path d="M14.9564 23.8466L16.0757 23.4876L35.0854 4.47877C35.2951 4.26787 35.2951 3.92776 35.0854 3.71726C34.8745 3.50636 34.5336 3.50636 34.3235 3.71726L15.3138 22.7257L14.9564 23.8466Z" fill="#312E5E"/>
  <defs>
    <linearGradient id="paint0_linear_1249_5023" x1="5.37673" y1="11.8981" x2="23.9767" y2="35.1" gradientUnits="userSpaceOnUse">
      <stop stop-color="#FF4D87"/>
      <stop offset="1" stop-color="#DB2561"/>
    </linearGradient>
    <linearGradient id="paint1_linear_1249_5023" x1="9.40585" y1="16.9238" x2="20.1826" y2="30.3669" gradientUnits="userSpaceOnUse">
      <stop stop-color="#FF4D87"/>
      <stop offset="1" stop-color="#DB2561"/>
    </linearGradient>
    <linearGradient id="paint2_linear_1249_5023" x1="12.5811" y1="23.8474" x2="17.3308" y2="23.8474" gradientUnits="userSpaceOnUse">
      <stop stop-color="#FF4D87"/>
      <stop offset="1" stop-color="#DB2561"/>
    </linearGradient>
    <linearGradient id="paint3_linear_1249_5023" x1="34.4544" y1="9.47006" x2="34.996" y2="4.55089" gradientUnits="userSpaceOnUse">
      <stop stop-color="#FF4D87"/>
      <stop offset="1" stop-color="#DB2561"/>
    </linearGradient>
    <linearGradient id="paint4_linear_1249_5023" x1="29.3313" y1="4.3475" x2="34.2508" y2="3.80593" gradientUnits="userSpaceOnUse">
      <stop stop-color="#FF4D87"/>
      <stop offset="1" stop-color="#DB2561"/>
    </linearGradient>
  </defs>
</svg>