<svg xmlns="http://www.w3.org/2000/svg" width="189" height="56" viewBox="0 0 189 56" fill="none">
  <path d="M27.463 0C43.6155 0.212745 55.5252 12.4114 55.9506 27.1912C56.4002 42.846 43.9767 55.9839 27.5954 56C20.0851 55.6989 13.5422 53.0858 8.20356 47.7391C2.65213 42.1836 -0.101507 35.3798 0.00285868 27.5805C0.10321 20.1024 2.86889 13.5795 8.19553 8.2569C13.6386 2.82188 20.2939 0.212745 27.463 0ZM32.9943 22.8761C33.1027 22.9202 33.179 22.9564 33.2592 22.9844C35.3907 23.7873 36.8317 25.2885 37.5222 27.432C38.4454 30.294 37.9717 33.0316 36.4745 35.5966C35.4108 37.423 33.757 38.571 31.8543 39.4099C29.1529 40.6021 26.2989 41.0316 23.3847 41.0557C18.4514 41.0998 13.5182 41.0677 8.58891 41.0718C8.48855 41.0718 8.35609 41.0115 8.29588 41.1199C8.24771 41.2122 8.36011 41.2925 8.41229 41.3648C9.43186 42.85 10.5919 44.2188 11.9246 45.435C15.2683 48.4737 19.1539 50.4405 23.6014 51.2835C27.202 51.9699 30.7665 51.8053 34.3029 50.85C34.5437 50.7857 34.5799 50.7135 34.4795 50.4847C33.3957 48 32.3159 45.5113 31.2482 43.0186C31.0194 42.4807 30.7304 41.9709 30.5939 41.3889C30.5377 41.144 30.6501 41.1159 30.8026 41.0677C31.8343 40.7346 32.8137 40.289 33.761 39.7712C34.1704 39.5504 34.1704 39.5504 34.3671 39.9639C34.3792 39.992 34.3912 40.0241 34.4032 40.0522C35.1659 41.8625 35.9246 43.6729 36.6872 45.4832C36.8799 45.9368 37.0766 46.3864 37.3014 46.9042C37.4579 46.5028 37.5864 46.1776 37.7148 45.8525C39.1478 42.1636 40.5969 38.4787 42.0139 34.7817C42.8368 32.6302 44.2778 31.145 46.4976 30.4546C47.2361 30.2258 47.9908 30.1335 48.7655 30.2178C48.894 30.2338 48.902 30.294 48.8699 30.3904C48.8418 30.4706 48.8097 30.5509 48.7775 30.6272C46.5497 36.002 44.322 41.3768 42.0982 46.7516C42.058 46.852 41.9737 46.9483 42.0259 47.0728C51.1338 40.566 54.9913 27.2795 48.5046 16.1124C42.046 4.9975 29.4419 2.56498 21.2452 5.33467C23.9828 5.33467 26.6882 5.32264 29.3937 5.33869C31.0194 5.34672 32.613 5.57151 34.1343 6.16559C35.8122 6.81988 37.2693 7.77521 38.3009 9.29252C39.1679 10.569 39.5332 11.998 39.5894 13.5233C39.7259 17.2122 38.1845 19.994 35.0535 21.9207C34.4113 22.3101 33.7168 22.587 32.9943 22.8761ZM31.8543 33.999C32.4685 33.3006 32.8498 32.5339 33.0585 31.6829C33.4158 30.2298 33.3235 28.8409 32.4364 27.5765C31.8543 26.7496 31.0274 26.2198 30.1323 25.7822C29.9878 25.71 29.8634 25.6417 29.7951 25.4691C29.1729 23.9799 28.5427 22.4987 27.9165 21.0135C27.7921 20.7165 27.8403 20.6483 28.1775 20.6162C28.892 20.5439 29.5944 20.4235 30.2888 20.2308C31.3205 19.9458 32.2678 19.4922 33.1067 18.8219C34.2748 17.8826 34.7565 16.6061 34.9211 15.1651C35.186 12.857 34.1704 11.1269 32.0269 10.3041C30.9993 9.90668 29.9155 9.75414 28.8197 9.75013C25.1388 9.73809 21.4579 9.74612 17.7771 9.7421C17.5844 9.7421 17.5242 9.80633 17.4961 9.99097C17.4238 10.4887 17.3355 10.9824 17.2472 11.4762C16.7254 14.4425 16.2036 17.4089 15.6777 20.3713C15.6336 20.6121 15.6817 20.6844 15.9426 20.6844C17.1428 20.6724 18.339 20.6924 19.5392 20.6724C19.9045 20.6643 20.1092 20.8169 20.2457 21.13C20.7314 22.2579 21.2211 23.3818 21.7068 24.5098C21.8473 24.8349 21.8433 24.8349 21.486 24.8349C19.4108 24.8349 17.3355 24.843 15.2603 24.8269C14.9712 24.8269 14.8789 24.9152 14.8307 25.1882C14.6381 26.3562 14.4213 27.5243 14.2126 28.6884C13.751 31.2534 13.2974 33.8184 12.8237 36.3793C12.7675 36.6804 12.8277 36.7566 13.1408 36.7526C16.6933 36.7406 20.2457 36.7526 23.7981 36.7446C25.2151 36.7406 26.612 36.572 27.9808 36.1987C28.2096 36.1385 28.2497 36.0743 28.1534 35.8575C26.8368 32.8349 25.5242 29.8043 24.2116 26.7777C22.321 22.4064 20.4303 18.0351 18.5397 13.6638C18.3711 13.2745 18.3752 13.2584 18.8047 13.2905C21.1087 13.4792 22.9391 14.4947 24.2678 16.3934C24.902 17.2965 25.2392 18.3402 25.6647 19.3357C27.5473 23.7672 29.4098 28.2067 31.2803 32.6423C31.465 33.0878 31.6536 33.5253 31.8543 33.999ZM7.43286 39.7712C7.53723 39.4661 12.6792 10.2198 12.6792 9.95885C4.45042 16.5499 1.40376 29.4912 7.43286 39.7712Z" fill="#14426A"/>
  <path d="M64.0949 26.39C64.0949 21.9946 64.099 17.6032 64.0869 13.2078C64.0869 12.9108 64.1712 12.8305 64.4642 12.8305C68.4662 12.8385 72.4682 12.8586 76.4703 12.8225C77.2811 12.8145 78.0879 12.7944 78.8947 12.8867C79.7497 12.9831 80.5726 13.1958 81.3714 13.5009C82.1983 13.818 82.9891 14.2194 83.7036 14.7492C84.6509 15.4517 85.3252 16.3629 85.7708 17.4587C86.3007 18.7593 86.4171 20.12 86.2886 21.4848C86.1361 23.0784 85.3533 24.3629 84.0327 25.2941C83.7999 25.4587 83.5671 25.6313 83.2901 25.7317C83.2098 25.7638 83.1336 25.816 83.1416 25.9163C83.1496 26.0046 83.2299 26.0247 83.2981 26.0528C85.0402 26.7593 86.0759 28.108 86.7141 29.814C87.252 31.243 87.2038 32.692 86.8987 34.1612C86.6017 35.5982 85.9193 36.8064 84.8074 37.7698C84.125 38.3639 83.3383 38.7773 82.4913 39.0985C81.2108 39.5801 79.8822 39.8009 78.5214 39.8892C78.0197 39.9213 77.5179 39.9374 77.0202 39.9374C72.8576 39.9414 68.695 39.9414 64.5325 39.9414C64.0909 39.9414 64.0909 39.9414 64.0909 39.5119C64.0949 35.1366 64.0949 30.7613 64.0949 26.39ZM73.5721 35.1005C74.8767 35.1005 76.1853 35.1245 77.4898 35.0924C78.5335 35.0683 79.553 34.8917 80.4682 34.3338C81.1747 33.9043 81.7327 33.3383 81.9374 32.5114C82.2184 31.3714 81.5681 29.9625 80.5566 29.3283C79.264 28.5174 77.8591 28.1963 76.3538 28.1963C74.0538 28.1963 71.7537 28.2003 69.4537 28.1883C69.2088 28.1883 69.1366 28.2645 69.1366 28.4974C69.1406 30.6047 69.1406 32.7081 69.1366 34.8155C69.1366 35.0403 69.2129 35.1045 69.4376 35.1005C70.8104 35.0965 72.1913 35.1005 73.5721 35.1005ZM73.4999 23.6524C74.7643 23.6524 76.0247 23.6524 77.2891 23.6524C78.0438 23.6524 78.7743 23.532 79.4848 23.2711C80.962 22.7292 81.552 21.1918 80.9539 19.7829C80.3157 18.2736 79.0553 17.5671 77.4858 17.531C74.8125 17.4708 72.1351 17.5189 69.4617 17.5069C69.1928 17.5069 69.1326 17.6072 69.1326 17.8441C69.1366 19.6705 69.1366 21.5009 69.1326 23.3273C69.1326 23.5721 69.1968 23.6604 69.4617 23.6564C70.8064 23.6484 72.1511 23.6524 73.4999 23.6524Z" fill="#17436B"/>
  <path d="M123.901 26.3665C123.901 22.0032 123.901 17.644 123.901 13.2807C123.901 12.8191 123.901 12.8191 124.351 12.8191C125.507 12.8191 126.663 12.8231 127.819 12.8151C128.052 12.8151 128.208 12.8833 128.357 13.0719C130.316 15.5526 132.283 18.0253 134.246 20.502C136.116 22.8622 137.979 25.2225 139.845 27.5868C140.62 28.5662 141.395 29.5456 142.169 30.525C142.229 30.6013 142.27 30.7458 142.406 30.6936C142.531 30.6455 142.478 30.505 142.478 30.4086C142.478 24.7007 142.478 18.9887 142.478 13.2807C142.478 12.8391 142.498 12.8191 142.952 12.8191C144.397 12.8191 145.842 12.8271 147.287 12.8151C147.596 12.811 147.689 12.9114 147.689 13.2205C147.681 21.955 147.681 30.6896 147.681 39.4242C147.681 39.9179 147.681 39.9179 147.179 39.9179C146.107 39.9179 145.039 39.9019 143.968 39.9259C143.598 39.934 143.353 39.8136 143.125 39.5245C142.225 38.3725 141.306 37.2325 140.391 36.0925C138.717 34.0012 137.043 31.9099 135.365 29.8186C133.399 27.362 131.428 24.9014 129.461 22.4448C129.393 22.3565 129.344 22.1999 129.208 22.236C129.059 22.2802 129.128 22.4367 129.128 22.5451C129.124 28.1889 129.128 33.8366 129.128 39.4804C129.128 39.8778 129.088 39.9179 128.686 39.9179C127.273 39.9179 125.86 39.9179 124.447 39.9179C123.901 39.9179 123.901 39.9179 123.901 39.356C123.901 38.1036 123.901 36.8552 123.901 35.6028C123.901 32.524 123.901 29.4453 123.901 26.3665Z" fill="#16426B"/>
  <path d="M103.847 41.1448C103.205 41.1448 102.699 41.1408 102.197 41.1448C101.704 41.1488 101.242 40.9762 100.76 40.8999C99.3434 40.6752 97.9706 40.2537 96.6901 39.6074C94.948 38.7283 93.4989 37.492 92.375 35.8784C91.7087 34.919 91.1507 33.9035 90.7373 32.8197C90.3318 31.764 90.0669 30.6721 89.8943 29.5482C89.6775 28.1433 89.6976 26.7344 89.7779 25.3294C89.8381 24.2537 90.103 23.21 90.4442 22.1784C90.8537 20.9341 91.4397 19.782 92.1863 18.7143C93.4829 16.8518 95.1366 15.3987 97.1678 14.355C98.5887 13.6245 100.086 13.1307 101.655 12.9381C103.213 12.7494 104.782 12.7735 106.348 13.0384C107.384 13.215 108.391 13.48 109.366 13.8573C110.811 14.4152 112.12 15.202 113.264 16.2577C114.26 17.1809 115.07 18.2486 115.737 19.4248C116.363 20.5286 116.825 21.7048 117.166 22.9331C117.623 24.5788 117.748 26.2527 117.655 27.9426C117.603 28.9381 117.439 29.9295 117.19 30.905C116.905 32.0369 116.519 33.1247 115.986 34.1604C114.89 36.2958 113.356 38.0379 111.265 39.2542C109.973 40.0048 108.584 40.4985 107.123 40.8076C105.995 41.0404 104.867 41.2572 103.847 41.1448ZM94.8236 26.7986C94.8075 27.7018 94.9038 28.5929 95.1045 29.4719C95.3534 30.5718 95.7869 31.5994 96.3649 32.5628C96.9671 33.5703 97.7097 34.4574 98.7132 35.0956C100.094 35.9787 101.639 36.2958 103.249 36.3681C104.297 36.4163 105.336 36.3079 106.364 36.067C107.552 35.786 108.628 35.2883 109.519 34.4614C111.141 32.9521 112.036 31.0495 112.409 28.8859C112.839 26.4052 112.485 24.0449 111.261 21.8332C110.486 20.4323 109.459 19.2843 108.022 18.5216C106.533 17.7308 104.923 17.5341 103.277 17.5422C102.262 17.5462 101.27 17.7549 100.315 18.1443C99.3032 18.5577 98.38 19.1077 97.6133 19.8744C95.7107 21.781 94.8236 24.1172 94.8236 26.7986Z" fill="#16436B"/>
  <path d="M152.409 12.8353C153.264 12.8353 154.123 12.8393 154.978 12.8313C155.223 12.8273 155.347 12.9076 155.439 13.1605C155.897 14.3767 156.391 15.5769 156.86 16.7852C157.266 17.8288 157.655 18.8765 158.057 19.9161C158.406 20.8193 158.771 21.7144 159.124 22.6176C159.462 23.4886 159.787 24.3677 160.128 25.2387C160.545 26.3105 160.971 27.3742 161.388 28.446C161.661 29.1484 161.926 29.8589 162.199 30.5614C162.492 31.312 162.793 32.0626 163.086 32.8133C163.166 33.022 163.239 33.2307 163.315 33.4394C163.339 33.5037 163.323 33.604 163.423 33.612C163.516 33.6201 163.54 33.5278 163.568 33.4635C163.736 33.0501 163.905 32.6366 164.066 32.2192C164.347 31.4966 164.616 30.7661 164.897 30.0436C165.246 29.1404 165.603 28.2412 165.96 27.3381C166.313 26.4389 166.675 25.5398 167.028 24.6406C167.369 23.7696 167.702 22.8945 168.044 22.0195C168.393 21.1163 168.75 20.2172 169.099 19.314C169.372 18.6115 169.641 17.9051 169.918 17.2026C170.215 16.452 170.52 15.7014 170.813 14.9467C171.034 14.3847 171.251 13.8188 171.451 13.2488C171.556 12.9557 171.688 12.8072 172.046 12.8153C173.703 12.8393 175.361 12.8273 177.019 12.8233C177.42 12.8233 177.448 12.8474 177.296 13.2167C176.826 14.3566 176.341 15.4926 175.867 16.6326C175.457 17.6241 175.06 18.6236 174.647 19.6151C174.301 20.45 173.936 21.2769 173.587 22.1118C173.186 23.0752 172.796 24.0425 172.399 25.0059C171.981 26.0175 171.552 27.025 171.134 28.0365C170.797 28.8514 170.468 29.6743 170.127 30.4891C169.778 31.3321 169.42 32.171 169.067 33.018C168.662 33.9894 168.264 34.9648 167.863 35.9362C167.453 36.9277 167.04 37.9191 166.627 38.9106C166.506 39.2036 166.382 39.5007 166.261 39.7937C166.185 39.9823 166.065 40.0586 165.844 40.0586C164.367 40.0466 162.89 40.0506 161.412 40.0506C160.738 40.0506 160.75 40.0466 160.501 39.4244C160.084 38.3888 159.646 37.3652 159.225 36.3336C158.815 35.3381 158.418 34.3426 158.004 33.3511C157.599 32.3797 157.182 31.4123 156.776 30.4409C156.371 29.4695 155.977 28.4901 155.572 27.5187C155.223 26.6758 154.865 25.8328 154.516 24.9859C154.111 24.0145 153.713 23.039 153.312 22.0676C152.959 21.2126 152.593 20.3617 152.24 19.5107C151.843 18.5594 151.458 17.604 151.06 16.6527C150.699 15.7816 150.33 14.9106 149.968 14.0355C149.84 13.7224 149.715 13.4053 149.571 13.0962C149.471 12.8835 149.599 12.8193 149.808 12.8233C150.675 12.8393 151.542 12.8353 152.409 12.8353Z" fill="#17436B"/>
  <path d="M183.72 26.3704C183.72 21.9871 183.724 17.6077 183.716 13.2244C183.716 12.9233 183.792 12.8149 184.113 12.8149C185.558 12.831 186.999 12.823 188.444 12.823C188.834 12.823 188.866 12.8591 188.858 13.2444C188.85 13.6378 188.846 14.0352 188.846 14.4286C188.846 22.5932 188.846 30.7577 188.846 38.9223C188.846 38.9986 188.846 39.0708 188.846 39.1471C188.866 40.0222 188.934 39.9218 188.055 39.9218C186.762 39.9258 185.466 39.9218 184.173 39.9218C183.732 39.9218 183.724 39.9138 183.724 39.4803C183.72 35.113 183.72 30.7417 183.72 26.3704Z" fill="#18436C"/>
</svg>