<svg xmlns="http://www.w3.org/2000/svg" width="80" height="89" viewBox="0 0 80 89" fill="none">
  <rect width="80" height="80" rx="40" fill="url(#paint0_linear_1249_4661)"/>
  <g filter="url(#filter0_d_1249_4661)">
    <path d="M39.0832 17C52.0717 17.1748 61.6484 27.1951 61.9905 39.3356C62.352 52.1949 52.3622 62.9868 39.1898 63C33.1507 62.7527 27.8895 60.6062 23.5966 56.2142C19.1326 51.6508 16.9184 46.062 17.0023 39.6554C17.083 33.5126 19.3069 28.1546 23.5901 23.7825C27.9669 19.318 33.3185 17.1748 39.0832 17ZM43.5311 35.791C43.6182 35.8273 43.6795 35.857 43.7441 35.8801C45.458 36.5395 46.6168 37.7727 47.172 39.5334C47.9143 41.8844 47.5335 44.1331 46.3295 46.24C45.4742 47.7403 44.1443 48.6833 42.6144 49.3724C40.4421 50.3517 38.1472 50.7045 35.8039 50.7243C31.837 50.7606 27.8701 50.7342 23.9064 50.7375C23.8257 50.7375 23.7192 50.688 23.6708 50.7771C23.6321 50.8529 23.7224 50.9189 23.7644 50.9782C24.5843 52.1982 25.5171 53.3226 26.5887 54.3216C29.2774 56.8176 32.4018 58.4333 35.9782 59.1257C38.8734 59.6896 41.7397 59.5544 44.5833 58.7696C44.777 58.7169 44.806 58.6575 44.7253 58.4696C43.8538 56.4286 42.9856 54.3843 42.127 52.3367C41.943 51.8948 41.7106 51.4761 41.6009 50.998C41.5557 50.7969 41.6461 50.7738 41.7687 50.7342C42.5983 50.4605 43.3858 50.0945 44.1476 49.6692C44.4768 49.4879 44.4768 49.4878 44.635 49.8275C44.6446 49.8505 44.6543 49.8769 44.664 49.9C45.2773 51.3871 45.8873 52.8741 46.5006 54.3612C46.6555 54.7338 46.8137 55.1031 46.9944 55.5284C47.1203 55.1987 47.2236 54.9316 47.3269 54.6645C48.4792 51.6344 49.6444 48.6075 50.7838 45.5707C51.4455 43.8034 52.6042 42.5834 54.3892 42.0163C54.9831 41.8283 55.5899 41.7525 56.2128 41.8217C56.3161 41.8349 56.3226 41.8844 56.2968 41.9635C56.2742 42.0295 56.2484 42.0954 56.2225 42.1581C54.4311 46.5731 52.6397 50.9881 50.8516 55.4031C50.8193 55.4856 50.7515 55.5647 50.7935 55.6669C58.1172 50.3221 61.2191 39.4081 56.003 30.2352C50.8096 21.1051 40.6745 19.1069 34.0835 21.3821C36.2848 21.3821 38.4603 21.3722 40.6358 21.3854C41.943 21.3919 43.2244 21.5766 44.4477 22.0646C45.7969 22.602 46.9686 23.3868 47.7981 24.6331C48.4953 25.6817 48.7891 26.8555 48.8342 28.1085C48.944 31.1386 47.7045 33.4236 45.1869 35.0063C44.6705 35.3261 44.1121 35.5536 43.5311 35.791ZM42.6144 44.9277C43.1082 44.354 43.4149 43.7242 43.5827 43.0252C43.87 41.8316 43.7957 40.6908 43.0824 39.6521C42.6144 38.9729 41.9495 38.5377 41.2297 38.1783C41.1135 38.1189 41.0134 38.0629 40.9586 37.9211C40.4583 36.6978 39.9515 35.4811 39.448 34.2611C39.3479 34.0171 39.3867 33.9611 39.6578 33.9347C40.2323 33.8754 40.7972 33.7764 41.3556 33.6182C42.1851 33.3841 42.9468 33.0115 43.6214 32.4608C44.5607 31.6893 44.948 30.6407 45.0804 29.457C45.2934 27.5611 44.4768 26.14 42.7532 25.4641C41.9269 25.1376 41.0554 25.0123 40.1742 25.009C37.2144 24.9991 34.2546 25.0057 31.2947 25.0024C31.1398 25.0024 31.0914 25.0552 31.0688 25.2069C31.0107 25.6157 30.9397 26.0213 30.8687 26.4268C30.4491 28.8635 30.0294 31.3002 29.6066 33.7336C29.5711 33.9314 29.6098 33.9908 29.8196 33.9908C30.7847 33.9809 31.7466 33.9973 32.7117 33.9809C33.0054 33.9743 33.17 34.0996 33.2798 34.3568C33.6703 35.2833 34.0641 36.2065 34.4547 37.133C34.5676 37.4001 34.5644 37.4001 34.2771 37.4001C32.6084 37.4001 30.9397 37.4067 29.2709 37.3935C29.0385 37.3935 28.9643 37.4661 28.9256 37.6903C28.7706 38.6498 28.5963 39.6093 28.4285 40.5655C28.0573 42.6724 27.6926 44.7794 27.3117 46.883C27.2665 47.1303 27.3149 47.193 27.5667 47.1897C30.4232 47.1798 33.2798 47.1897 36.1363 47.1831C37.2757 47.1798 38.399 47.0413 39.4996 46.7346C39.6836 46.6852 39.7159 46.6324 39.6384 46.4544C38.5797 43.9715 37.5243 41.4821 36.4688 38.996C34.9485 35.4053 33.4283 31.8146 31.908 28.2239C31.7724 27.904 31.7757 27.8908 32.121 27.9172C33.9737 28.0722 35.4456 28.9064 36.514 30.466C37.024 31.2079 37.2951 32.0652 37.6372 32.8829C39.151 36.523 40.6487 40.1698 42.1528 43.8133C42.3013 44.1793 42.453 44.5387 42.6144 44.9277ZM22.9768 49.6692C23.0608 49.4186 27.1955 25.3948 27.1955 25.1805C20.5786 30.5946 18.1288 41.2249 22.9768 49.6692Z" fill="url(#paint1_linear_1249_4661)" shape-rendering="crispEdges"/>
  </g>
  <defs>
    <filter id="filter0_d_1249_4661" x="1" y="11" width="77" height="78" filterUnits="userSpaceOnUse" color-interpolation-filters="sRGB">
      <feFlood flood-opacity="0" result="BackgroundImageFix"/>
      <feColorMatrix in="SourceAlpha" type="matrix" values="0 0 0 0 0 0 0 0 0 0 0 0 0 0 0 0 0 0 127 0" result="hardAlpha"/>
      <feOffset dy="10"/>
      <feGaussianBlur stdDeviation="8"/>
      <feComposite in2="hardAlpha" operator="out"/>
      <feColorMatrix type="matrix" values="0 0 0 0 0.111429 0 0 0 0 0.137143 0 0 0 0 0.16 0 0 0 0.4 0"/>
      <feBlend mode="normal" in2="BackgroundImageFix" result="effect1_dropShadow_1249_4661"/>
      <feBlend mode="normal" in="SourceGraphic" in2="effect1_dropShadow_1249_4661" result="shape"/>
    </filter>
    <linearGradient id="paint0_linear_1249_4661" x1="14.4486" y1="5.94945" x2="67.1438" y2="79.8925" gradientUnits="userSpaceOnUse">
      <stop stop-color="#4A85F8"/>
      <stop offset="1" stop-color="#0154F8"/>
    </linearGradient>
    <linearGradient id="paint1_linear_1249_4661" x1="39.5" y1="17" x2="39.5" y2="63" gradientUnits="userSpaceOnUse">
      <stop stop-color="white"/>
      <stop offset="1" stop-color="white" stop-opacity="0.7"/>
    </linearGradient>
  </defs>
</svg>