<svg xmlns="http://www.w3.org/2000/svg" width="32" height="40" viewBox="0 0 32 40" fill="none">
  <path d="M26.9506 19.1058C26.9506 12.7974 22.0479 7.68372 15.9998 7.68372C9.95208 7.68372 5.04944 12.7974 5.04944 19.1058C5.04944 22.142 6.18733 24.8992 8.04036 26.9451H8.03891C11.1706 30.7043 11.9135 31.7898 12.4583 34.885C12.6614 36.0392 13.001 36.6352 14.0813 36.6352C15.1605 36.6352 15.998 36.6352 15.9998 36.6352H16.0002C16.0024 36.6352 16.8399 36.6352 17.9188 36.6352C18.999 36.6352 19.3382 36.0392 19.5417 34.885C20.0869 31.7901 20.8294 30.7043 23.9611 26.9451H23.9597C25.8124 24.8992 26.9506 22.142 26.9506 19.1058Z" fill="url(#paint0_linear_1234_8388)"/>
  <path d="M17.0199 4.48303C17.0199 5.07083 16.5633 5.54745 15.9994 5.54745C15.4362 5.54745 14.9792 5.07083 14.9792 4.48303V1.06442C14.9792 0.476622 15.4362 0 15.9994 0C16.5633 0 17.0199 0.476622 17.0199 1.06442V4.48303Z" fill="url(#paint1_linear_1234_8388)"/>
  <path d="M28.651 12.7161C28.1631 13.0098 27.5391 12.8359 27.2571 12.3263C26.9752 11.8177 27.143 11.1668 27.6305 10.8731L30.4691 9.16379C30.9571 8.87008 31.5811 9.04436 31.863 9.55328C32.145 10.0618 31.9776 10.7131 31.4896 11.0072L28.651 12.7161Z" fill="url(#paint2_linear_1234_8388)"/>
  <path d="M27.6305 27.3391C27.1426 27.0454 26.9751 26.3945 27.2574 25.8848C27.5383 25.3763 28.1631 25.202 28.6506 25.4961L31.4889 27.2054C31.9768 27.4995 32.1443 28.1504 31.8627 28.6593C31.5811 29.1682 30.957 29.3425 30.4684 29.0488L27.6305 27.3391Z" fill="url(#paint3_linear_1234_8388)"/>
  <path d="M4.36886 10.873C4.85678 11.1667 5.02422 11.8179 4.74227 12.3269C4.46104 12.8358 3.83629 13.0097 3.34836 12.716L0.510472 11.007C0.0225466 10.713 -0.144894 10.0617 0.136698 9.55352C0.41829 9.04422 1.04269 8.86995 1.53025 9.16366L4.36886 10.873Z" fill="url(#paint4_linear_1234_8388)"/>
  <path d="M3.34916 25.496C3.83709 25.2019 4.46113 25.3765 4.74308 25.8858C5.02503 26.3948 4.85687 27.0453 4.36895 27.3394L1.53142 29.0479C1.04313 29.342 0.418733 29.1674 0.137861 28.6592C-0.144811 28.1503 0.022993 27.4994 0.510558 27.2053L3.34916 25.496Z" fill="url(#paint5_linear_1234_8388)"/>
  <path d="M18.8905 39.585C18.8336 39.8183 18.5876 40.0001 18.3399 40.0001H13.6608C13.4127 40.0001 13.1668 39.8183 13.1088 39.585L11.649 33.6766C11.5107 33.1211 11.7261 32.6449 12.1355 32.6449H19.8649C20.2743 32.6449 20.4878 33.1211 20.3517 33.6766L18.8905 39.585Z" fill="url(#paint6_linear_1234_8388)"/>
  <path d="M14.8085 32.6446V22.3058C14.8085 21.5745 14.24 20.9818 13.5389 20.9818C12.8378 20.9818 12.2695 21.5745 12.2695 22.3058C12.2695 23.037 12.8378 23.6301 13.5389 23.6301H18.461C19.1621 23.6301 19.7303 23.037 19.7303 22.3058C19.7303 21.5745 19.1621 20.9818 18.461 20.9818C17.7599 20.9818 17.1913 21.5745 17.1913 22.3058V32.6446" stroke="white" stroke-width="2" stroke-miterlimit="10"/>
  <path d="M14.0462 10.9104C13.7178 10.9104 13.4214 10.6749 13.3451 10.3263C13.2561 9.9222 13.4988 9.51957 13.8866 9.42679C14.0246 9.39374 14.1632 9.36407 14.3033 9.33741C14.6961 9.26567 15.0699 9.53384 15.1408 9.94173C15.2118 10.35 14.9525 10.741 14.5615 10.8154C14.4426 10.8375 14.3249 10.8631 14.2075 10.8908C14.1531 10.9044 14.0991 10.9104 14.0462 10.9104ZM9.2915 14.4736C10.0743 13.2225 11.164 12.211 12.4434 11.5481C12.7995 11.3637 12.945 10.913 12.7678 10.5412C12.591 10.1701 12.1593 10.0168 11.8024 10.2028C10.2936 10.9844 9.00776 12.1776 8.0852 13.6529C7.86771 14.0003 7.96169 14.4657 8.29478 14.6926C8.41613 14.7756 8.55259 14.8146 8.68763 14.8146C8.92277 14.8146 9.15323 14.6944 9.2915 14.4736Z" fill="white"/>
  <defs>
    <linearGradient id="paint0_linear_1234_8388" x1="15.3238" y1="11.9331" x2="19.6831" y2="54.4435" gradientUnits="userSpaceOnUse">
      <stop stop-color="#FFD52E"/>
      <stop offset="1" stop-color="#FF9000"/>
    </linearGradient>
    <linearGradient id="paint1_linear_1234_8388" x1="15.8155" y1="0.819423" x2="16.6447" y2="8.90555" gradientUnits="userSpaceOnUse">
      <stop stop-color="#FFD52E"/>
      <stop offset="1" stop-color="#FF9000"/>
    </linearGradient>
    <linearGradient id="paint2_linear_1234_8388" x1="31.0906" y1="9.79639" x2="24.5744" y2="14.2717" gradientUnits="userSpaceOnUse">
      <stop stop-color="#FFD52E"/>
      <stop offset="1" stop-color="#FF9000"/>
    </linearGradient>
    <linearGradient id="paint3_linear_1234_8388" x1="31.2744" y1="28.0832" x2="24.0747" y2="24.9541" gradientUnits="userSpaceOnUse">
      <stop stop-color="#FFD52E"/>
      <stop offset="1" stop-color="#FF9000"/>
    </linearGradient>
    <linearGradient id="paint4_linear_1234_8388" x1="0.724916" y1="10.1295" x2="7.92452" y2="13.2585" gradientUnits="userSpaceOnUse">
      <stop stop-color="#FFD52E"/>
      <stop offset="1" stop-color="#FF9000"/>
    </linearGradient>
    <linearGradient id="paint5_linear_1234_8388" x1="0.909704" y1="28.4154" x2="7.42555" y2="23.9404" gradientUnits="userSpaceOnUse">
      <stop stop-color="#FFD52E"/>
      <stop offset="1" stop-color="#FF9000"/>
    </linearGradient>
    <linearGradient id="paint6_linear_1234_8388" x1="15.9995" y1="31.2988" x2="15.9995" y2="42.8" gradientUnits="userSpaceOnUse">
      <stop stop-color="#586578"/>
      <stop offset="1" stop-color="#3F4E63"/>
    </linearGradient>
  </defs>
</svg>