<svg width="95" height="28" viewBox="0 0 95 28" fill="none" xmlns="http://www.w3.org/2000/svg">
<path d="M13.7315 0C21.8078 0.106373 27.7627 6.20574 27.9754 13.5956C28.2002 21.423 21.9885 27.9921 13.7978 28.0001C10.0426 27.8496 6.77115 26.543 4.10179 23.8696C1.32607 21.0919 -0.0507535 17.69 0.00142935 13.7903C0.0516051 10.0512 1.43445 6.78979 4.09778 4.12846C6.81932 1.41094 10.147 0.106373 13.7315 0ZM16.4972 11.4381C16.5514 11.4601 16.5895 11.4782 16.6297 11.4923C17.6954 11.8937 18.4159 12.6443 18.7612 13.7161C19.2228 15.1471 18.9859 16.5159 18.2373 17.7984C17.7055 18.7116 16.8786 19.2856 15.9272 19.705C14.5765 20.3011 13.1495 20.5159 11.6924 20.5279C9.22575 20.55 6.7591 20.5339 4.29447 20.5359C4.24429 20.5359 4.17806 20.5058 4.14796 20.56C4.12387 20.6062 4.18007 20.6463 4.20616 20.6825C4.71595 21.4251 5.29598 22.1095 5.96231 22.7176C7.63417 24.2369 9.57698 25.2204 11.8008 25.6418C13.6011 25.985 15.3833 25.9027 17.1515 25.4251C17.2719 25.393 17.29 25.3568 17.2398 25.2424C16.6979 24.0001 16.158 22.7557 15.6242 21.5094C15.5098 21.2404 15.3653 20.9855 15.297 20.6945C15.2689 20.5721 15.3251 20.558 15.4014 20.5339C15.9172 20.3674 16.4069 20.1446 16.8806 19.8857C17.0853 19.7753 17.0853 19.7753 17.1836 19.982C17.1896 19.9961 17.1957 20.0121 17.2017 20.0262C17.583 20.9313 17.9624 21.8365 18.3437 22.7417C18.44 22.9685 18.5384 23.1933 18.6508 23.4522C18.729 23.2515 18.7933 23.0889 18.8575 22.9263C19.574 21.0819 20.2985 19.2394 21.007 17.3909C21.4185 16.3152 22.139 15.5726 23.2489 15.2273C23.6182 15.1129 23.9955 15.0668 24.3828 15.1089C24.4471 15.117 24.4511 15.1471 24.435 15.1952C24.421 15.2354 24.4049 15.2755 24.3889 15.3137C23.275 18.0011 22.1611 20.6885 21.0492 23.3759C21.0291 23.4261 20.9869 23.4742 21.013 23.5365C25.567 20.2831 27.4957 13.6398 24.2524 8.05623C21.0231 2.49876 14.721 1.28249 10.6226 2.66735C11.9914 2.66735 13.3442 2.66133 14.6969 2.66936C15.5098 2.67337 16.3066 2.78576 17.0672 3.0828C17.9062 3.40995 18.6347 3.88762 19.1505 4.64628C19.584 5.28451 19.7667 5.99902 19.7948 6.76169C19.863 8.60615 19.0923 9.99703 17.5268 10.9604C17.2057 11.1551 16.8585 11.2936 16.4972 11.4381ZM15.9272 16.9996C16.2343 16.6503 16.425 16.267 16.5293 15.8415C16.708 15.115 16.6618 14.4205 16.2182 13.7883C15.9272 13.3749 15.5138 13.1099 15.0662 12.8912C14.994 12.855 14.9317 12.8209 14.8976 12.7346C14.5865 11.99 14.2714 11.2494 13.9583 10.5068C13.8961 10.3583 13.9202 10.3242 14.0888 10.3081C14.446 10.272 14.7973 10.2118 15.1445 10.1154C15.6603 9.97294 16.1339 9.74615 16.5534 9.41097C17.1375 8.94133 17.3783 8.30309 17.4606 7.58256C17.5931 6.42852 17.0853 5.56349 16.0135 5.15205C15.4997 4.95336 14.9578 4.87709 14.4099 4.87508C12.5695 4.86906 10.729 4.87308 8.88856 4.87107C8.79223 4.87107 8.76212 4.90318 8.74807 4.9955C8.71195 5.24438 8.66779 5.49124 8.62364 5.7381C8.36272 7.2213 8.10181 8.70449 7.83889 10.1857C7.81681 10.3061 7.84089 10.3422 7.97135 10.3422C8.57145 10.3362 9.16955 10.3462 9.76965 10.3362C9.95229 10.3322 10.0546 10.4085 10.1229 10.565C10.3657 11.129 10.6106 11.691 10.8534 12.2549C10.9237 12.4175 10.9217 12.4175 10.7431 12.4175C9.70543 12.4175 8.66779 12.4215 7.63016 12.4135C7.48565 12.4135 7.43949 12.4576 7.4154 12.5941C7.31907 13.1782 7.21069 13.7622 7.10632 14.3443C6.87551 15.6267 6.64872 16.9092 6.41189 18.1897C6.38379 18.3403 6.4139 18.3784 6.57044 18.3764C8.34667 18.3704 10.1229 18.3764 11.8991 18.3724C12.6076 18.3704 13.306 18.2861 13.9904 18.0994C14.1048 18.0693 14.1249 18.0372 14.0767 17.9288C13.4184 16.4175 12.7621 14.9022 12.1058 13.3889C11.1605 11.2032 10.2152 9.01759 9.2699 6.83194C9.18561 6.63725 9.18761 6.62923 9.40236 6.64528C10.5544 6.73961 11.4696 7.24739 12.1339 8.19672C12.451 8.6483 12.6196 9.17013 12.8324 9.66787C13.7737 11.8836 14.7049 14.1034 15.6402 16.3212C15.7325 16.544 15.8269 16.7627 15.9272 16.9996ZM3.71644 19.8857C3.76863 19.7331 6.33963 5.1099 6.33963 4.97944C2.22522 8.27499 0.701884 14.7457 3.71644 19.8857Z" fill="white"/>
<path d="M32.0476 13.1963C32.0476 10.9986 32.0496 8.80287 32.0436 6.60517C32.0436 6.45665 32.0857 6.41651 32.2322 6.41651C34.2333 6.42052 36.2343 6.43056 38.2353 6.4125C38.6407 6.40848 39.0441 6.39845 39.4475 6.44461C39.875 6.49278 40.2865 6.59915 40.6859 6.75169C41.0993 6.91024 41.4947 7.11094 41.8519 7.37587C42.3256 7.7271 42.6628 8.1827 42.8856 8.73062C43.1505 9.3809 43.2087 10.0613 43.1445 10.7437C43.0682 11.5405 42.6768 12.1827 42.0165 12.6483C41.9001 12.7306 41.7837 12.8169 41.6452 12.8671C41.6051 12.8832 41.5669 12.9093 41.571 12.9594C41.575 13.0036 41.6151 13.0136 41.6492 13.0277C42.5203 13.3809 43.0381 14.0553 43.3572 14.9083C43.6262 15.6228 43.6021 16.3473 43.4495 17.0819C43.301 17.8004 42.9598 18.4045 42.4039 18.8862C42.0627 19.1832 41.6693 19.39 41.2458 19.5505C40.6056 19.7914 39.9413 19.9018 39.2609 19.9459C39.01 19.962 38.7591 19.97 38.5102 19.97C36.4289 19.972 34.3477 19.972 32.2664 19.972C32.0456 19.972 32.0456 19.972 32.0456 19.7573C32.0476 17.5696 32.0476 15.3819 32.0476 13.1963ZM36.7862 17.5515C37.4385 17.5515 38.0928 17.5636 38.7451 17.5475C39.2669 17.5355 39.7767 17.4472 40.2343 17.1682C40.5875 16.9534 40.8665 16.6704 40.9688 16.257C41.1093 15.687 40.7842 14.9825 40.2784 14.6654C39.6322 14.26 38.9297 14.0994 38.1771 14.0994C37.027 14.0994 35.877 14.1014 34.727 14.0954C34.6046 14.0954 34.5684 14.1335 34.5684 14.25C34.5704 15.3036 34.5704 16.3553 34.5684 17.409C34.5684 17.5214 34.6066 17.5535 34.719 17.5515C35.4054 17.5495 36.0958 17.5515 36.7862 17.5515ZM36.7501 11.8275C37.3823 11.8275 38.0125 11.8275 38.6447 11.8275C39.022 11.8275 39.3873 11.7673 39.7426 11.6368C40.4811 11.3659 40.7762 10.5972 40.4771 9.89269C40.158 9.13805 39.5278 8.78481 38.7431 8.76674C37.4064 8.73664 36.0677 8.76072 34.731 8.7547C34.5965 8.7547 34.5664 8.80488 34.5664 8.92329C34.5684 9.83649 34.5684 10.7517 34.5664 11.6649C34.5664 11.7873 34.5985 11.8315 34.731 11.8295C35.4034 11.8255 36.0757 11.8275 36.7501 11.8275Z" fill="white"/>
<path d="M61.9509 13.1845C61.9509 11.0029 61.9509 8.82324 61.9509 6.6416C61.9509 6.41079 61.9509 6.41078 62.1757 6.41078C62.7537 6.41078 63.3318 6.41279 63.9098 6.40878C64.0262 6.40878 64.1045 6.4429 64.1787 6.53723C65.1582 7.77757 66.1416 9.01391 67.123 10.2522C68.0583 11.4324 68.9896 12.6125 69.9229 13.7947C70.3102 14.2844 70.6976 14.7741 71.0849 15.2638C71.115 15.3019 71.1351 15.3742 71.2033 15.3481C71.2656 15.324 71.2395 15.2538 71.2395 15.2056C71.2395 12.3516 71.2395 9.49559 71.2395 6.6416C71.2395 6.42082 71.2495 6.41078 71.4763 6.41078C72.1988 6.41078 72.9214 6.4148 73.6439 6.40878C73.7984 6.40677 73.8446 6.45694 73.8446 6.61149C73.8406 10.9788 73.8406 15.3461 73.8406 19.7134C73.8406 19.9603 73.8406 19.9603 73.5897 19.9603C73.0538 19.9603 72.5199 19.9522 71.9841 19.9643C71.7994 19.9683 71.677 19.9081 71.5626 19.7636C71.113 19.1875 70.6534 18.6176 70.1958 18.0476C69.3589 17.0019 68.5219 15.9562 67.683 14.9106C66.6996 13.6823 65.7141 12.4519 64.7307 11.2236C64.6965 11.1795 64.6725 11.1012 64.6042 11.1193C64.53 11.1414 64.5641 11.2196 64.5641 11.2738C64.5621 14.0957 64.5641 16.9196 64.5641 19.7415C64.5641 19.9402 64.544 19.9603 64.3433 19.9603C63.6368 19.9603 62.9304 19.9603 62.2239 19.9603C61.9509 19.9603 61.9509 19.9603 61.9509 19.6793C61.9509 19.0531 61.9509 18.4289 61.9509 17.8027C61.9509 16.2633 61.9509 14.7239 61.9509 13.1845Z" fill="white"/>
<path d="M51.9238 20.5737C51.6027 20.5737 51.3498 20.5717 51.0989 20.5737C50.8521 20.5757 50.6213 20.4894 50.3804 20.4513C49.672 20.3389 48.9855 20.1281 48.3453 19.805C47.4742 19.3655 46.7497 18.7473 46.1877 17.9405C45.8546 17.4608 45.5756 16.953 45.3689 16.4111C45.1662 15.8833 45.0337 15.3373 44.9474 14.7754C44.839 14.0729 44.8491 13.3685 44.8892 12.666C44.9193 12.1281 45.0518 11.6063 45.2224 11.0905C45.4271 10.4683 45.7201 9.89227 46.0934 9.3584C46.7417 8.42714 47.5686 7.7006 48.5841 7.17877C49.2946 6.81349 50.0432 6.56662 50.828 6.47029C51.6067 6.37596 52.3915 6.388 53.1742 6.52046C53.692 6.60877 54.1958 6.74123 54.6835 6.92989C55.406 7.20887 56.0603 7.60225 56.6323 8.1301C57.1301 8.59172 57.5355 9.12558 57.8687 9.71364C58.1818 10.2656 58.4126 10.8536 58.5832 11.4678C58.812 12.2907 58.8742 13.1276 58.828 13.9726C58.8019 14.4703 58.7196 14.966 58.5952 15.4538C58.4527 16.0197 58.26 16.5636 57.9931 17.0815C57.4452 18.1492 56.6785 19.0203 55.6328 19.6284C54.9866 20.0037 54.2921 20.2506 53.5616 20.4051C52.9976 20.5215 52.4336 20.6299 51.9238 20.5737ZM47.412 13.4006C47.404 13.8521 47.4522 14.2977 47.5525 14.7372C47.677 15.2872 47.8937 15.801 48.1827 16.2827C48.4838 16.7864 48.8551 17.23 49.3568 17.5491C50.0473 17.9906 50.82 18.1492 51.6248 18.1853C52.1486 18.2094 52.6684 18.1552 53.1822 18.0348C53.7763 17.8943 54.3142 17.6454 54.7598 17.232C55.5706 16.4773 56.0182 15.526 56.2048 14.4442C56.4196 13.2039 56.243 12.0237 55.6308 10.9179C55.2435 10.2174 54.7297 9.6434 54.0112 9.26206C53.2665 8.86668 52.4617 8.76833 51.6388 8.77235C51.1311 8.77435 50.6353 8.87872 50.1576 9.0734C49.6519 9.28013 49.1903 9.55509 48.8069 9.93844C47.8556 10.8918 47.412 12.0599 47.412 13.4006Z" fill="white"/>
<path d="M76.2047 6.41891C76.6322 6.41891 77.0617 6.42092 77.4892 6.41691C77.6116 6.4149 77.6738 6.45504 77.72 6.58148C77.9488 7.18961 78.1956 7.78972 78.4305 8.39383C78.6332 8.91566 78.8279 9.43949 79.0286 9.95932C79.2032 10.4109 79.3858 10.8585 79.5624 11.3101C79.731 11.7456 79.8936 12.1851 80.0642 12.6206C80.2729 13.1565 80.4857 13.6884 80.6944 14.2243C80.8309 14.5755 80.9633 14.9307 81.0998 15.282C81.2463 15.6573 81.3969 16.0326 81.5434 16.4079C81.5835 16.5123 81.6196 16.6166 81.6578 16.721C81.6698 16.7531 81.6618 16.8033 81.712 16.8073C81.7581 16.8113 81.7702 16.7652 81.7842 16.733C81.8685 16.5263 81.9528 16.3196 82.0331 16.1109C82.1736 15.7496 82.308 15.3843 82.4485 15.0231C82.6232 14.5715 82.8018 14.1219 82.9804 13.6703C83.157 13.2207 83.3377 12.7712 83.5143 12.3216C83.6849 11.8861 83.8515 11.4485 84.0221 11.011C84.1967 10.5594 84.3753 10.1098 84.5499 9.65826C84.6864 9.30703 84.8208 8.95379 84.9593 8.60256C85.1079 8.22725 85.2604 7.85193 85.4069 7.47461C85.5173 7.19363 85.6257 6.91063 85.726 6.62563C85.7782 6.47912 85.8444 6.40486 86.0231 6.40888C86.852 6.42092 87.6809 6.4149 88.5098 6.41289C88.7105 6.41289 88.7245 6.42493 88.6483 6.60958C88.4134 7.17958 88.1706 7.74757 87.9338 8.31757C87.729 8.8133 87.5303 9.31305 87.3236 9.80879C87.151 10.2263 86.9684 10.6397 86.7938 11.0572C86.5931 11.5389 86.3984 12.0225 86.1997 12.5042C85.9909 13.01 85.7762 13.5138 85.5675 14.0195C85.3989 14.427 85.2343 14.8384 85.0637 15.2458C84.8891 15.6673 84.7105 16.0868 84.5338 16.5103C84.3311 16.996 84.1324 17.4837 83.9317 17.9694C83.727 18.4651 83.5203 18.9609 83.3136 19.4566C83.2534 19.6031 83.1911 19.7516 83.1309 19.8981C83.0928 19.9925 83.0326 20.0306 82.9222 20.0306C82.1836 20.0246 81.445 20.0266 80.7064 20.0266C80.3693 20.0266 80.3753 20.0246 80.2508 19.7135C80.0421 19.1957 79.8233 18.6839 79.6126 18.1681C79.4079 17.6703 79.2092 17.1726 79.0025 16.6769C78.7998 16.1911 78.591 15.7075 78.3883 15.2218C78.1856 14.7361 77.9889 14.2463 77.7862 13.7606C77.6116 13.3392 77.433 12.9177 77.2584 12.4942C77.0556 12.0085 76.8569 11.5208 76.6562 11.0351C76.4796 10.6076 76.297 10.1821 76.1204 9.7566C75.9217 9.28094 75.729 8.80326 75.5303 8.3276C75.3497 7.89207 75.165 7.45655 74.9844 7.01902C74.9202 6.86247 74.858 6.70391 74.7857 6.54937C74.7355 6.443 74.7997 6.41088 74.9041 6.41289C75.3376 6.42092 75.7711 6.41891 76.2047 6.41891Z" fill="white"/>
<path d="M91.8602 13.1865C91.8602 10.9948 91.8622 8.80512 91.8582 6.61344C91.8582 6.46292 91.8963 6.40872 92.0568 6.40872C92.7794 6.41675 93.4999 6.41274 94.2224 6.41274C94.4171 6.41274 94.4332 6.4308 94.4292 6.62348C94.4251 6.82016 94.4231 7.01886 94.4231 7.21555C94.4231 11.2979 94.4231 15.3802 94.4231 19.4625C94.4231 19.5006 94.4231 19.5367 94.4231 19.5748C94.4332 20.0124 94.4673 19.9622 94.0278 19.9622C93.3815 19.9642 92.7332 19.9622 92.087 19.9622C91.8662 19.9622 91.8622 19.9582 91.8622 19.7414C91.8602 17.5578 91.8602 15.3721 91.8602 13.1865Z" fill="white"/>
</svg>
