<svg xmlns="http://www.w3.org/2000/svg" width="40" height="40" viewBox="0 0 40 40" fill="none">
  <g clip-path="url(#clip0_1099_1878)">
    <path d="M13.3491 36.7159C10.4637 37.1422 8.21601 34.9648 8.06351 32.2803C7.94586 30.1895 9.11773 27.7532 12.2136 27.2911C15.4958 26.7999 17.308 29.5832 17.4486 31.7404C17.6116 34.2615 16.038 36.3189 13.3491 36.7159Z" fill="#4D453C"/>
    <path d="M12.6054 29.5647C13.9525 29.4729 15.1899 30.3138 15.3355 31.8329C15.4891 33.43 14.3166 34.4249 12.9183 34.5382C11.4309 34.6572 10.4207 33.6881 10.2704 32.2195C10.1329 30.8949 11.2025 29.6611 12.6054 29.5647Z" fill="white"/>
    <path d="M13.044 34.0803C11.7925 34.2681 10.8207 33.3457 10.7595 32.2C10.7124 31.3094 11.2279 30.2679 12.5708 30.0634C13.9959 29.8472 14.7762 31.0306 14.8311 31.9502C14.8996 33.0267 14.2115 33.9072 13.044 34.0803Z" fill="#B0B0B0"/>
    <path d="M32.9711 31.5902C30.151 32.0094 27.9616 29.9043 27.819 27.3051C27.7085 25.2797 28.8616 22.9183 31.8843 22.463C35.0908 21.9791 36.8577 24.671 36.9881 26.7609C37.1408 29.2047 35.597 31.1997 32.9711 31.5902Z" fill="#4D453C"/>
    <path d="M32.1668 24.445C33.5721 24.348 34.8603 25.2244 35.0125 26.8064C35.1715 28.472 34.0091 29.5237 32.5496 29.6405C31.0016 29.7654 29.9397 28.748 29.7836 27.2188C29.6415 25.8386 30.7083 24.5459 32.1668 24.445Z" fill="white"/>
    <path d="M32.6319 28.9819C31.4378 29.1621 30.5153 28.2886 30.4601 27.2034C30.4174 26.3582 30.909 25.3724 32.1895 25.1768C33.5468 24.9684 34.2897 26.0893 34.342 26.9604C34.3997 27.9777 33.7437 28.8134 32.6319 28.9819Z" fill="#B0B0B0"/>
    <path d="M29.5684 23.0839C29.5684 23.0839 32.616 25.9477 33.0213 26.4266C33.4265 26.9056 33.584 27.4354 33.1356 27.8868C32.6609 28.366 32.028 28.0904 31.5734 27.6299C31.2254 27.2779 27.3852 23.8708 27.3852 23.8708L29.5684 23.0839Z" fill="#2F2F2F"/>
    <path d="M29.4318 20.255C29.4318 20.255 29.6878 20.1864 29.9916 20.1516C30.2961 20.1192 30.3847 20.1213 30.3847 20.1213L30.6532 22.7462L28.9033 24.4937C28.9033 24.4937 28.0726 25.3633 27.4612 26.3657C27.3066 26.6194 26.949 26.5599 26.9468 26.4647C26.9446 26.3696 27.8038 21.0277 27.8038 21.0277L29.4318 20.255Z" fill="#FC8F02"/>
    <path d="M34.6563 22.3958C34.5627 22.6745 33.2353 22.5307 31.3169 23.1275C29.9125 23.566 28.879 24.5288 28.879 24.5288C28.879 24.5288 29.2379 22.6519 29.5641 21.7441C29.9713 20.6074 30.3797 20.1227 30.3797 20.1227C30.3797 20.1227 31.408 19.9999 32.8451 20.6397C33.9119 21.1148 34.7672 22.0659 34.6563 22.3958Z" fill="#FFA726"/>
    <path d="M33.1106 21.4954C32.9948 21.7878 32.2433 21.4172 31.6259 21.3445C31.0086 21.2718 30.5692 21.3999 30.383 21.2168C30.1962 21.0314 30.0689 20.6048 30.6414 20.4617C31.5431 20.2434 33.2798 21.0644 33.1106 21.4954Z" fill="#FAD91A"/>
    <path d="M22.0869 12.1524C22.1424 12.2437 23.2678 13.6426 23.2678 13.6426L22.7691 15.6837L21.1919 14.9364L20.38 13.7512L22.0869 12.1524Z" fill="#5E636F"/>
    <path d="M21.3581 13.2487C21.3581 13.2487 20.6216 13.987 20.4291 13.9351C20.2366 13.8831 19.4118 12.6884 19.1949 12.6999C18.7786 12.7209 18.1367 12.7013 17.8087 12.018C17.3016 10.9659 18.1186 10.7599 18.1186 10.7599L20.6764 10.7526L21.3581 13.2487Z" fill="#FC8F0B"/>
    <path d="M19.9279 8.47074C20.1631 8.28606 23.2004 7.65341 23.6615 7.63595C24.1227 7.61849 24.2955 8.26324 24.2955 8.26324L24.3 11.0909C24.3 11.0909 24.0769 11.2724 23.6833 11.3778C23.4031 11.4529 23.2133 11.5943 23.0693 11.7235C22.9229 11.8533 21.3564 13.2514 21.3564 13.2514L19.3994 11.2316L17.7258 11.1676C17.7258 11.1676 17.7831 10.8209 18.2898 10.5195C18.7966 10.2181 19.2078 9.89824 19.3935 9.47062C19.5846 9.04412 19.6896 8.65364 19.9279 8.47074Z" fill="#FCB90A"/>
    <path d="M20.7372 8.85443C20.739 9.10243 21.1971 9.33426 21.7358 9.49015C22.2745 9.64603 22.979 9.74455 23.073 9.31301C23.167 8.88148 23.2486 8.14269 22.8383 8.15687C22.3916 8.17045 20.7346 8.44878 20.7372 8.85443Z" fill="#FED519"/>
    <path d="M24.0308 7.77766C24.2922 7.7387 24.9305 8.26646 24.9402 9.49067C24.9503 10.707 24.4799 11.1825 24.0649 11.1694C23.5637 11.1536 23.474 10.3649 23.4544 9.34526C23.4454 8.55827 23.7423 7.82132 24.0308 7.77766Z" fill="#DEDFE2"/>
    <path d="M15.1253 11.73C15.1253 11.73 18.4423 10.8568 18.7698 10.7846C19.0972 10.7123 19.4931 10.9531 19.5367 11.3478C19.5827 11.7418 19.4038 12.0304 19.0658 12.121C18.7277 12.2116 15.6169 13.0141 15.6169 13.0141C15.6169 13.0141 15.207 12.9427 15.0491 12.3535C14.9195 11.8602 15.1253 11.73 15.1253 11.73ZM18.5019 8.59685L18.9411 10.1201C18.9411 10.1201 19.136 10.5674 19.4894 10.4856C19.9714 10.372 19.8468 9.84893 19.8468 9.84893C19.8468 9.84893 19.1969 7.48146 19.1626 7.35348C19.0688 7.00333 18.6192 6.4457 18.0646 6.06631C17.51 5.68693 17.0664 5.49002 16.7722 5.73451C16.4755 5.97965 16.627 6.76727 16.833 7.47817C17.0429 8.20356 17.3325 9.05254 17.6532 9.0805C18.0819 9.11573 18.5019 8.59685 18.5019 8.59685Z" fill="#464C4F"/>
    <path d="M8.36333 23.7498C8.36333 23.7498 6.98405 23.7699 6.78837 23.8897C6.59269 24.0094 6.486 24.4805 6.49895 25.0698C6.5112 25.6178 6.55727 26.3017 6.64317 26.3615C6.80886 26.4775 7.34716 26.4291 7.34716 26.4291C7.34716 26.4291 8.55526 24.6689 8.5587 24.5852C8.56215 24.5014 8.36333 23.7498 8.36333 23.7498Z" fill="#FF281D"/>
    <path d="M22.6365 13.3536C22.6365 13.3536 21.431 14.3702 21.2663 14.5283C21.1023 14.6887 20.9961 14.9009 21.2465 15.2272C21.4946 15.5541 23.2343 18.2507 23.6493 19.2007C24.0643 20.1507 24.2742 21.272 24.2742 21.272L27.3768 21.1343L27.5759 19.8102L22.6365 13.3536Z" fill="#FC8F0B"/>
    <path d="M26.9492 20.4854L24.2742 21.272C24.2742 21.272 24.4456 22.163 24.2929 23.322C24.1792 24.1729 23.888 25.5684 23.4878 26.0069C23.3224 26.191 22.6907 26.5673 21.9808 26.7575C21.3553 26.9251 20.8148 26.8784 20.4095 26.7566C19.9475 26.6164 19.6986 26.4217 19.6986 26.4217L16.8584 26.766L18.1354 30.3243L24.8182 28.5569L27.4522 23.9948L26.9492 20.4854Z" fill="#5F6364"/>
    <path d="M16.8489 20.8186C17.2775 20.7763 18.4479 21.3193 18.4479 21.3193L18.486 22.1762L11.3901 25.9565L6.6639 28.0615C6.6639 28.0615 6.99872 26.1911 7.69597 24.6688C8.27034 23.4123 8.77116 22.8666 8.77116 22.8666L16.8489 20.8186Z" fill="#FE8D00"/>
    <path d="M23.0643 12.9701C23.0643 12.9701 22.4455 13.5008 22.2964 13.6495C22.0722 13.8752 22.458 14.494 22.7879 14.8171C23.1177 15.1402 24.4557 16.2699 25.3882 17.7024C26.1222 18.8283 26.5435 20.7678 26.6076 21.5478C26.6654 22.2467 26.0427 25.1001 25.6944 26.1666C25.3109 27.3434 24.7682 27.7425 24.254 27.9967C23.4222 28.4085 20.4146 29.0747 19.4412 29.1414C18.4678 29.2081 17.9814 28.7354 18.5263 27.8905C19.073 27.0427 19.6945 26.4258 19.6945 26.4258C19.6945 26.4258 18.8368 25.7264 18.7084 24.8705C18.6129 24.2439 18.4884 22.1756 18.4884 22.1756L14.473 23.205L11.0067 23.9655L8.21855 25.4891C8.21855 25.4891 7.3439 26.1272 6.82185 27.5016C6.42404 28.5477 6.36419 29.5318 6.36904 29.8203C6.3739 30.1089 6.29675 31.183 6.8222 31.1638C7.34765 31.1447 14.5248 29.8505 15.1355 29.7826C15.7462 29.7147 16.4795 29.3992 16.9651 30.0714C17.4643 30.7659 17.56 31.4805 18.9922 31.1459C20.4244 30.8113 25.0322 30.0995 25.9821 28.921C26.7734 27.9428 27.7177 26.2223 28.4364 23.5916C29.155 20.961 29.5973 20.2162 29.5973 20.2162L29.1094 18.8975L25.7023 14.7402L23.2817 13.0956L23.0643 12.9701Z" fill="#FDB700"/>
    <path d="M23.5125 12.6143C23.6354 12.5322 25.7175 13.7343 27.1506 15.3639C29.0597 17.5337 29.6034 20.2195 29.6034 20.2195C29.6034 20.2195 28.848 19.9793 28.4666 19.5509C28.0852 19.1225 26.8416 17.1859 26.8416 17.1859C26.8416 17.1859 25.8432 15.9808 24.434 14.6916C23.7374 14.0526 22.6528 13.3856 22.7494 13.2536C22.8531 13.1093 23.5125 12.6143 23.5125 12.6143ZM17.1128 28.3623C16.818 28.286 17.2824 25.8658 15.7207 24.7029C14.3623 23.6899 12.7216 23.9613 11.0711 24.476C9.70711 24.901 7.89663 25.7847 7.89663 25.7847C7.89663 25.7847 9.91445 22.9509 14.1982 22.6236C17.4602 22.3758 18.1448 24.8246 18.0908 25.9753C18.0314 27.2025 17.2937 28.4095 17.1128 28.3623Z" fill="#FED519"/>
    <path d="M19.0209 20.705C19.0775 21.003 19.1106 21.2426 18.5732 21.3814C18.0383 21.5196 15.8689 22.0103 13.3055 22.6247C10.7422 23.239 9.84509 23.407 9.35146 23.371C8.85784 23.335 8.62479 23.1801 8.44561 22.6949C8.26709 22.2122 8.01727 21.0963 8.02788 20.6819C8.0385 20.2676 8.25505 20.0905 8.83537 19.9091C9.37288 19.7418 11.015 19.3018 11.2637 19.2351C11.7829 19.096 13.8523 19.7968 14.1133 19.776C14.3743 19.7553 15.2408 19.5697 16.2333 19.3038C17.0447 19.0863 17.752 18.8476 17.9273 18.7774C18.1026 18.7071 18.5432 18.7288 18.6648 19.1828C18.8108 19.7467 18.9744 20.4638 19.0209 20.705Z" fill="#464C4F"/>
    <path d="M26.687 17.2273C26.9853 16.9688 27.7434 17.2289 28.4066 18.3324C29.0274 19.3644 28.7619 20.0541 28.4475 20.0788C28.138 20.1022 27.8839 19.1247 27.4194 18.5503C26.9573 17.9753 26.418 17.4598 26.687 17.2273Z" fill="white"/>
  </g>
  <defs>
    <clipPath id="clip0_1099_1878">
      <rect width="32" height="32" fill="white" transform="matrix(-0.965926 0.258819 0.258819 0.965926 30.9097 0)"/>
    </clipPath>
  </defs>
</svg>