<svg xmlns="http://www.w3.org/2000/svg" width="48" height="48" viewBox="0 0 48 48" fill="none">
  <path fill-rule="evenodd" clip-rule="evenodd" d="M16.877 6.375H12.625C12.0946 6.375 11.5859 6.58571 11.2108 6.96079C10.8357 7.33586 10.625 7.84457 10.625 8.375C10.625 8.90543 10.8357 9.41414 11.2108 9.78921C11.5859 10.1643 12.0946 10.375 12.625 10.375H16.877C16.5383 9.06318 16.5383 7.68682 16.877 6.375ZM17.517 12.047C12.075 15.003 10.625 21.085 10.625 24.375V34.375C10.625 35.9663 11.2571 37.4924 12.3824 38.6176C13.5076 39.7429 15.0337 40.375 16.625 40.375H16.681C16.6459 40.0803 16.6272 39.7838 16.625 39.487V28.375C16.625 26.2533 17.4679 24.2184 18.9681 22.7181C20.4684 21.2179 22.5033 20.375 24.625 20.375C26.7467 20.375 28.7816 21.2179 30.2819 22.7181C31.7821 24.2184 32.625 26.2533 32.625 28.375V39.487C32.625 39.7883 32.6063 40.0843 32.569 40.375H32.625C34.2163 40.375 35.7424 39.7429 36.8676 38.6176C37.9929 37.4924 38.625 35.9663 38.625 34.375V24.375C38.625 21.085 37.173 15.003 31.735 12.047C31.0618 13.3523 30.0422 14.447 28.7881 15.2113C27.534 15.9756 26.0937 16.3799 24.625 16.3799C23.1563 16.3799 21.716 15.9756 20.4619 15.2113C19.2078 14.447 18.1882 13.3523 17.515 12.047H17.517ZM32.371 10.375H36.625C37.1554 10.375 37.6641 10.1643 38.0392 9.78921C38.4143 9.41414 38.625 8.90543 38.625 8.375C38.625 7.84457 38.4143 7.33586 38.0392 6.96079C37.6641 6.58571 37.1554 6.375 36.625 6.375H32.373C32.7117 7.68682 32.7097 9.06318 32.371 10.375ZM24.625 24.375C23.5641 24.375 22.5467 24.7964 21.7966 25.5466C21.0464 26.2967 20.625 27.3141 20.625 28.375V39.487C20.625 41.081 21.919 42.375 23.513 42.375H25.737C27.331 42.375 28.625 41.081 28.625 39.487V28.375C28.625 27.3141 28.2036 26.2967 27.4534 25.5466C26.7033 24.7964 25.6859 24.375 24.625 24.375ZM20.625 8.375C20.625 7.31413 21.0464 6.29672 21.7966 5.54657C22.5467 4.79643 23.5641 4.375 24.625 4.375C25.6859 4.375 26.7033 4.79643 27.4534 5.54657C28.2036 6.29672 28.625 7.31413 28.625 8.375C28.625 9.43587 28.2036 10.4533 27.4534 11.2034C26.7033 11.9536 25.6859 12.375 24.625 12.375C23.5641 12.375 22.5467 11.9536 21.7966 11.2034C21.0464 10.4533 20.625 9.43587 20.625 8.375Z" fill="url(#paint0_linear_1098_1907)"/>
  <defs>
    <linearGradient id="paint0_linear_1098_1907" x1="24.625" y1="4.375" x2="24.625" y2="42.375" gradientUnits="userSpaceOnUse">
      <stop stop-color="#ECF0F0"/>
      <stop offset="1" stop-color="#C8D1D1"/>
    </linearGradient>
  </defs>
</svg>