<svg width="24" height="24" viewBox="0 0 24 24" fill="none" xmlns="http://www.w3.org/2000/svg">
<g clip-path="url(#clip0_1234_8263)">
<path d="M19.1165 0.0129395H4.88353C2.15503 0.201143 0 2.47374 0 5.25V8.00433H24V5.25C24 2.47374 21.8449 0.201143 19.1165 0.0129395Z" fill="#FF4B55"/>
<path d="M0 18.75C0 21.5263 2.15508 23.7989 4.88358 23.9871H19.1164C21.8449 23.7989 24 21.5263 24 18.75V15.9957H0V18.75Z" fill="#FF4B55"/>
<path d="M24 8.00436H0V15.9956H24V8.00436Z" fill="#FF4B55"/>
<path d="M5.21705 3.93085L5.81365 5.71935L7.69931 5.73398C7.94344 5.73586 8.04469 6.04737 7.84829 6.19238L6.33132 7.31234L6.90012 9.1099C6.97374 9.34264 6.70874 9.53515 6.51009 9.39318L4.97596 8.29685L3.44182 9.39318C3.24322 9.53511 2.97817 9.34259 3.0518 9.1099L3.62059 7.31234L2.10362 6.19238C1.90722 6.04737 2.00847 5.7359 2.25261 5.73398L4.13827 5.71935L4.73487 3.93085C4.8122 3.69928 5.13981 3.69928 5.21705 3.93085Z" fill="#FFE15A"/>
<path d="M12.064 4.37152L12.4918 4.95478L13.1823 4.73892C13.2716 4.71098 13.3452 4.81286 13.2904 4.88886L12.8678 5.47587L13.2865 6.06569C13.3407 6.14207 13.2665 6.24344 13.1773 6.21493L12.4883 5.99447L12.0566 6.57483C12.0007 6.64998 11.8813 6.61074 11.881 6.51711L11.8778 5.79385L11.1923 5.56275C11.1035 5.53284 11.104 5.40718 11.1929 5.37783L11.8799 5.15133L11.888 4.42811C11.889 4.33444 12.0087 4.29599 12.064 4.37152Z" fill="#FFE15A"/>
<path d="M9.45986 2.633L10.1791 2.71116L10.4858 2.05617C10.5256 1.97135 10.6504 1.98589 10.6695 2.07759L10.8174 2.78557L11.5353 2.87489C11.6283 2.88647 11.653 3.00964 11.5717 3.05615L10.9439 3.41553L11.0808 4.12571C11.0985 4.21765 10.989 4.27926 10.9196 4.21634L10.3837 3.73046L9.75047 4.08009C9.6685 4.12533 9.57607 4.04023 9.61443 3.95481L9.911 3.29512L9.38272 2.80099C9.31435 2.73709 9.36678 2.62288 9.45986 2.633Z" fill="#FFE15A"/>
<path d="M10.5968 9.64221L10.169 10.2255L9.47854 10.0096C9.38916 9.98166 9.31563 10.0835 9.37036 10.1596L9.79298 10.7466L9.3743 11.3364C9.32009 11.4128 9.39427 11.5141 9.48352 11.4856L10.1725 11.2652L10.6042 11.8455C10.6601 11.9207 10.7795 11.8814 10.7798 11.7878L10.783 11.0645L11.4685 10.8334C11.5572 10.8035 11.5568 10.6779 11.4679 10.6486L10.7809 10.4221L10.7729 9.69885C10.7718 9.60513 10.6521 9.56668 10.5968 9.64221Z" fill="#FFE15A"/>
<path d="M13.2015 8.00856L12.4823 8.08671L12.1755 7.43172C12.1358 7.3469 12.011 7.36144 11.9918 7.4531L11.8439 8.16108L11.126 8.25039C11.0331 8.26197 11.0084 8.38514 11.0896 8.43165L11.7174 8.79103L11.5805 9.50121C11.5628 9.59316 11.6724 9.65476 11.7417 9.59184L12.2776 9.10597L12.9109 9.45559C12.9928 9.50084 13.0853 9.41574 13.0469 9.33031L12.7504 8.67063L13.2786 8.1765C13.347 8.11264 13.2946 7.99843 13.2015 8.00856Z" fill="#FFE15A"/>
</g>
<defs>
<clipPath id="clip0_1234_8263">
<rect width="24" height="24" rx="12" fill="white"/>
</clipPath>
</defs>
</svg>
